<svg xmlns="http://www.w3.org/2000/svg" xmlns:xlink="http://www.w3.org/1999/xlink" id="Camada_1" x="0px" y="0px" viewBox="0 0 800 448.2" style="enable-background:new 0 0 800 448.2;" xml:space="preserve"><style type="text/css">	.st0{fill:#FFFFFF;}</style><g>	<path class="st0" d="M384.7,194.7h-4.4v-65.1h21.2c12.1,0,19.4,5.5,19.4,16.9c0,14-8,21-21.3,21h-14.9V194.7z M399.9,163.2  c10.6,0,16.4-5.9,16.4-15.9c0-10.1-5.5-13.6-15.7-13.6h-15.9v29.5H399.9z"></path>	<path class="st0" d="M429.8,147.7c3.4-0.8,8.6-1.6,13.5-1.6c12.8,0,13.8,8,13.8,17.3v24.5c0,2.7,1,4.2,3.7,4.2  c1.1,0,2.3-0.2,3.5-0.6l0.5,3.4c-1.3,0.5-2.8,0.8-4.9,0.8c-5.5,0-6.9-3.5-7-5.8c-4.3,3.7-9.1,5.8-13.9,5.8c-9.1,0-13-6.8-13-14.3  c0-11.2,7.5-15.4,18.1-15.4c2.7,0,5.7,0.3,8.5,0.9v-5.5c0-8.2-2.3-11.5-11.4-11.5c-3.5,0-7.9,0.8-11.1,1.7L429.8,147.7z   M452.8,170.4c-2.8-0.7-5.6-1-8-1c-9.2,0-14.1,3.1-14.1,11.8c0,5.9,2.8,10.5,9.1,10.5c4.7,0,9.6-2.5,13-5.6V170.4z"></path>	<path class="st0" d="M499.5,152.8l-3.7,2c-1.2-2.5-2.3-4.6-5.5-4.6c-4.1,0-8.5,4.4-10.3,6.5v38h-4.3V147h4.1v5.2  c3.2-3,6.4-6.2,11.5-6.2C496.2,146,498.5,149.9,499.5,152.8z"></path>	<path class="st0" d="M504.7,171.1c0-13.6,5.4-25.1,18.3-25.1c13.4,0,16.9,11.7,16.9,24.2c0,13-4.4,25.6-17.9,25.6  C508,195.8,504.7,183.3,504.7,171.1z M535.3,170.6c0-8.2-1.4-20.7-12.5-20.7c-11.4,0-13.4,14-13.4,21.5c0,10.5,2.6,20.6,12.7,20.6  C533.1,192,535.3,180.7,535.3,170.6z M515.3,139.3l16.9-12.7l2.9,4.2l-18,11L515.3,139.3z"></path>	<path class="st0" d="M579.6,147h4.3v66.6h-4.3V190c-3.5,3.3-7.6,5.8-13,5.8c-9.4,0-16.1-7.2-16.1-24.1c0-12.4,4.2-25.6,17.4-25.6  c4.8,0,8.1,2,11.8,4.5V147z M579.6,155.4c-3.6-2.8-7.2-5.3-12-5.3c-6.7,0-12.6,4.9-12.6,22.5c0,12.8,5.1,19.2,11.9,19.2  c5.7,0,9.8-3.5,12.7-7.1V155.4z"></path>	<path class="st0" d="M628.5,188.6c-5,4.3-10.3,7.2-16.3,7.2c-6.9,0-11.1-2.7-12.3-9.1c-0.3-1.4-0.4-3.9-0.4-5.8v-33.3l4.2-0.6v33.3  c0,1.8,0.1,3.6,0.5,5.3c0.8,3.7,2.7,6.3,8.5,6.3c6,0,10.8-3.1,15.9-8V147h4.3v47.7h-4.3V188.6z"></path>	<path class="st0" d="M648.6,134.8c0-2,1.2-3.2,3-3.2c1.8,0,3,1.2,3,3.2c0,2.2-1,3.6-3,3.6C649.6,138.4,648.6,137,648.6,134.8z   M653.8,147v47.7h-4.3V147H653.8z"></path>	<path class="st0" d="M670.3,147.7c3.4-0.8,8.6-1.6,13.5-1.6c12.8,0,13.8,8,13.8,17.3v24.5c0,2.7,1,4.2,3.7,4.2  c1.1,0,2.3-0.2,3.5-0.6l0.5,3.4c-1.3,0.5-2.8,0.8-4.9,0.8c-5.5,0-6.9-3.5-7-5.8c-4.3,3.7-9.1,5.8-13.9,5.8c-9.1,0-13-6.8-13-14.3  c0-11.2,7.5-15.4,18.1-15.4c2.7,0,5.7,0.3,8.5,0.9v-5.5c0-8.2-2.3-11.5-11.4-11.5c-3.5,0-7.9,0.8-11.1,1.7L670.3,147.7z   M693.3,170.4c-2.8-0.7-5.6-1-8-1c-9.2,0-14.1,3.1-14.1,11.8c0,5.9,2.8,10.5,9.1,10.5c4.7,0,9.6-2.5,13-5.6V170.4z"></path>	<path class="st0" d="M418.9,260.1l2.2,9.7c-3.8,2.2-10.5,4.8-19.4,4.8c-21.1,0-26.5-17.1-26.5-33.3c0-17.5,5.2-34.4,25.1-34.4  c15.6,0,20.1,9.2,21.7,17.3l-11.1,2.7c-1.5-6.3-4.1-10.8-10.7-10.8c-11.4,0-12.9,14-12.9,24.6c0,15.3,4.3,24.1,15.9,24.1  C409.3,264.7,414.2,262.8,418.9,260.1z"></path>	<path class="st0" d="M425.2,249.4c0-14,6.5-25.3,20.9-25.3c15.5,0,19.8,11.6,19.8,24.5c0,13-5.5,25.8-20.8,25.8  C429.7,274.4,425.2,261.4,425.2,249.4z M454.2,249c0-7.8-1.1-15.9-8.3-15.9c-7.5,0-9,8.8-9,16.4c0,9,1.8,15.9,8.5,15.9  C452.5,265.4,454.2,257.3,454.2,249z"></path>	<path class="st0" d="M505.9,229.1l-5.1,8.2c-1.4-1.7-3.1-2.7-5.2-2.7c-3.4,0-6.6,2.2-8.5,4.2v34.6h-11.4V225h10.1l0.5,5.1  c2.4-2.9,5.9-6,11.1-6C501.5,224.1,504.3,226.7,505.9,229.1z"></path>	<path class="st0" d="M511.6,226.3c3-1,9.2-2.2,15-2.2c12.9,0,18.3,4.6,18.3,20.8v17c0,2.4,0.6,3.8,2.7,3.8c0.9,0,1.7-0.2,2.9-0.6  l0.8,7.6c-2.4,1-5.2,1.4-7.7,1.4c-4.4,0-7.1-2.2-8-5.5c-3.1,2.9-7.8,5.5-13.7,5.5c-9.8,0-14.3-6.8-14.3-15.1  c0-11.3,6.7-16.8,18.7-16.8c2.7,0,4.9,0.3,7.7,0.9v-2.1c0-6.1-3.4-8.4-9.5-8.4c-4.2,0-8.3,1-11.5,2L511.6,226.3z M534,250.4  c-1.5-0.5-3.5-1.1-5.8-1.1c-5.9,0-9.3,2.4-9.3,8.8c0,4.5,2.1,7.6,6.4,7.6c3.3,0,6.7-2,8.7-4.2V250.4z"></path>	<path class="st0" d="M590,261.8l0.9,9.3c-3.2,1.5-8.2,3.3-14.3,3.3c-17,0-21.3-13.3-21.3-25.1c0-12.8,4.6-25.2,20.3-25.2  c10.5,0,15.1,6.3,16.6,13.6l-9.4,3.1c-1-4.1-2.7-7.6-7.5-7.6c-7,0-8.2,8.2-8.2,15.6c0,10,3.2,16.2,11.1,16.2  C582.5,265,586.4,263.6,590,261.8z M568,278.4c2.1-0.5,3.9-0.8,6.3-0.8c6.1,0,9.1,3.6,9.1,8.1c0,8.2-6.8,11.1-12.7,11.1  c-1.9,0-3.2-0.3-4.9-0.7l0.6-5.6c1.3,0.4,2.7,0.5,4,0.5c3.2,0,5.5-1.4,5.5-4.4c0-2.6-2.1-3.3-3.8-3.3c-1.4,0-2.4,0.2-4.2,0.5V278.4  z"></path>	<path class="st0" d="M600.6,226.3c3-1,9.2-2.2,15-2.2c12.9,0,18.3,4.6,18.3,20.8v17c0,2.4,0.6,3.8,2.7,3.8c0.9,0,1.7-0.2,2.9-0.6  l0.8,7.6c-2.4,1-5.2,1.4-7.7,1.4c-4.4,0-7.1-2.2-8-5.5c-3.1,2.9-7.8,5.5-13.7,5.5c-9.8,0-14.3-6.8-14.3-15.1  c0-11.3,6.7-16.8,18.7-16.8c2.7,0,4.9,0.3,7.7,0.9v-2.1c0-6.1-3.4-8.4-9.5-8.4c-4.2,0-8.3,1-11.5,2L600.6,226.3z M603.5,210.8  c1.9-1.7,5.3-3.3,8.6-3.3c3.8,0,6.8,2.4,10.9,2.4c2,0,4.2-0.7,5.8-1.8l0.8,8c-2.2,1.3-4.9,1.6-6.5,1.6c-4.1,0-8-2.1-10.9-2.1  c-2.2,0-4.8,0.9-7.1,2.5L603.5,210.8z M623,250.4c-1.5-0.5-3.5-1.1-5.8-1.1c-5.9,0-9.3,2.4-9.3,8.8c0,4.5,2.1,7.6,6.4,7.6  c3.3,0,6.7-2,8.7-4.2V250.4z"></path>	<path class="st0" d="M644.2,249.4c0-14,6.5-25.3,20.9-25.3c15.5,0,19.8,11.6,19.8,24.5c0,13-5.5,25.8-20.8,25.8  C648.8,274.4,644.2,261.4,644.2,249.4z M673.2,249c0-7.8-1.1-15.9-8.3-15.9c-7.5,0-9,8.8-9,16.4c0,9,1.8,15.9,8.5,15.9  C671.6,265.4,673.2,257.3,673.2,249z"></path>	<path class="st0" d="M741.5,208.1h11.3v65.1h-10.1l-0.4-4.3c-2.3,2.4-5.9,5.2-11.9,5.2c-10.1,0-17.2-7.9-17.2-24.6  c0-12.8,5.3-25.5,18.4-25.5c4.4,0,7.5,1.5,9.9,3.1V208.1z M741.6,235.8c-2.4-1.7-4.7-3.1-7.5-3.1c-4.7,0-9.1,3.4-9.1,17  c0,10.2,3.3,15.6,8.7,15.6c3.3,0,6-1.8,7.9-3.7V235.8z"></path>	<path class="st0" d="M774.2,251.1c0.2,9.2,4.4,14,11.3,14c4.6,0,8.9-1.4,13-3.6l0.6,9.5c-3.2,1.7-8.8,3.4-14.8,3.4  c-17,0-21.7-11.9-21.7-25.6c0-17.5,8.6-24.6,19.6-24.6c12.4,0,17.8,8.2,17.8,22.7v4.3H774.2z M782.1,232.4c-5.4,0-7.8,5.3-7.8,11.6  h15C789.3,236.1,786.6,232.4,782.1,232.4z"></path>	<path class="st0" d="M435.3,286.8l3.5,65.1h-10.8l-2.3-45.7c-0.1,0-0.2,0-0.2,0l-13.4,39.4h-8.9l-13.6-39.5c-0.1,0-0.1,0-0.2,0  l-2.4,45.8h-11l3.9-65.1H393l9.3,27.9c1.8,5.3,3.9,11.8,5.5,17.2c1.6-5.4,4.5-14,5.6-17.2l9.4-27.9H435.3z"></path>	<path class="st0" d="M451.3,304.9c3-1,9.2-2.2,15-2.2c12.9,0,18.3,4.6,18.3,20.8v17c0,2.4,0.6,3.8,2.7,3.8c0.9,0,1.7-0.2,2.9-0.6  l0.8,7.6c-2.4,1-5.2,1.4-7.7,1.4c-4.4,0-7.1-2.2-8-5.5c-3.1,2.9-7.8,5.5-13.7,5.5c-9.8,0-14.3-6.8-14.3-15.1  c0-11.3,6.7-16.8,18.7-16.8c2.7,0,4.9,0.3,7.7,0.9v-2.1c0-6.1-3.4-8.4-9.5-8.4c-4.2,0-8.3,1-11.5,2L451.3,304.9z M473.6,329  c-1.5-0.5-3.5-1.1-5.8-1.1c-5.9,0-9.3,2.4-9.3,8.8c0,4.5,2.1,7.6,6.4,7.6c3.3,0,6.7-2,8.7-4.2V329z"></path>	<path class="st0" d="M528.5,307.7l-5.1,8.2c-1.4-1.7-3.1-2.7-5.2-2.7c-3.4,0-6.6,2.2-8.5,4.2v34.6h-11.4v-48.3h10.1l0.5,5.1  c2.4-2.9,5.9-6,11.1-6C524.1,302.7,526.8,305.3,528.5,307.7z"></path>	<path class="st0" d="M540.2,284.5c4.2,0,6.6,2.3,6.6,6.5c0,4.4-2.9,6.5-6.6,6.5c-3.9,0-6.5-2.4-6.5-6.5  C533.7,286.8,536.5,284.5,540.2,284.5z M545.9,303.6v48.3h-11.3v-48.3H545.9z"></path>	<path class="st0" d="M559.2,304.9c3-1,9.2-2.2,15-2.2c12.9,0,18.3,4.6,18.3,20.8v17c0,2.4,0.6,3.8,2.7,3.8c0.9,0,1.7-0.2,2.9-0.6  l0.8,7.6c-2.4,1-5.2,1.4-7.7,1.4c-4.4,0-7.1-2.2-8-5.5c-3.1,2.9-7.8,5.5-13.7,5.5c-9.8,0-14.3-6.8-14.3-15.1  c0-11.3,6.7-16.8,18.7-16.8c2.7,0,4.9,0.3,7.7,0.9v-2.1c0-6.1-3.4-8.4-9.5-8.4c-4.2,0-8.3,1-11.5,2L559.2,304.9z M581.6,329  c-1.5-0.5-3.5-1.1-5.8-1.1c-5.9,0-9.3,2.4-9.3,8.8c0,4.5,2.1,7.6,6.4,7.6c3.3,0,6.7-2,8.7-4.2V329z"></path></g><g>	<g>		<path class="st0" d="M322.4,325.3c-0.1-1.2-0.9-2.3-2.1-2.7l-66.7-26.3l-52.1-86.5l-2.1,1.2l45.2,81.8l-31.1-12.3L188.8,216   l-2.3,0.8l21,61.3l-16.3-6.4v-16.5c0-3.2-3.3-5.5-10-7.1c-0.2,0-0.4-0.1-0.6-0.1l-2.7-14h0.8c1.4,0,2.6-1.2,2.6-2.6v-8   c0-1.4-1.2-2.6-2.6-2.6h-3.4h-2.5H169v-10.4c0-1.4-1.2-2.6-2.6-2.6h-8c-1.4,0-2.6,1.2-2.6,2.6v10.4h-9.1h-0.5   c-0.9,0-1.8,0.5-2.2,1.2c-0.3,0.4-0.4,0.9-0.4,1.4v0.7l-4.8,24.8c-5,1.6-7.5,3.7-7.5,6.4v16.5l-19.8,7.8l21.5-62.7l-2.3-0.8   l-25.4,65.9l-31.4,12.4L120,211l-2.1-1.2l-53,88.1L2.2,322.6c-1.2,0.5-2,1.5-2.1,2.7c-0.1,1.2,0.4,2.4,1.5,3.1l6.1,4v63.9   c0,0.9,0.4,1.7,1.2,2.2L61.2,433l0,0l0,0c0,0,0,0,0,0c0.1,0.1,0.2,0.1,0.3,0.2c0,0,0,0,0.1,0c0.1,0,0.2,0.1,0.3,0.1c0,0,0,0,0,0   c0.1,0,0.2,0,0.3,0.1c0,0,0.1,0,0.1,0c0.1,0,0.2,0,0.3,0h0h40.1l2.4,10.6c0.5,2.5,2.7,4.2,5.2,4.2c0.4,0,0.7,0,1.1-0.1l1.3-0.3   c2.1-0.5,3.7-2.1,4.1-4.2c0.3-0.6,0.5-1.3,0.5-2.1l0.2-8.2h75.6l0.2,8.1c0,0.7,0.2,1.4,0.5,2.1c0.4,2,2,3.7,4.1,4.2l1.3,0.3   c0.4,0.1,0.7,0.1,1.1,0.1c2.4,0,4.6-1.7,5.2-4.2l2.4-10.6h53.6h0c0.1,0,0.2,0,0.3,0c0,0,0.1,0,0.1,0c0.1,0,0.2,0,0.3-0.1   c0,0,0,0,0,0c0.1,0,0.2-0.1,0.3-0.1c0,0,0,0,0.1,0c0.1,0,0.2-0.1,0.3-0.2c0,0,0,0,0,0l0,0l0,0l52.3-34.4c0.7-0.5,1.2-1.3,1.2-2.2   v-64.9l4.5-2.9C322,327.8,322.5,326.6,322.4,325.3z M190,278.3l20.3,8l2.2,0.9l-1.6,0.9l-0.2,0.1c-0.8,0.5-1.2,1.5-0.7,2.4   c0.3,0.6,0.9,0.9,1.5,0.9c0.2,0,0.3,0,0.5-0.1c0.1,0,0.2-0.1,0.3-0.1l4.4-2.4l0,0l6.1,2.4l-4.2,2.3l-4.9,2.7l-5.6,3.1   c-0.8,0.5-1.2,1.5-0.7,2.4c0.3,0.6,0.9,0.9,1.5,0.9c0.3,0,0.6-0.1,0.8-0.2l5.1-2.8l5-2.7l7.2-3.9l7.2,2.8l-12.3,6.7l-5.2,2.8   l-6.6,3.6l0,0l-21.6-19.2l-5.9-5.3l-1.3-1.2l0,0l1.1-0.6l1.8-1.1c1-0.3,1.8-0.7,2.6-1C188.3,279.9,189.3,279.1,190,278.3z    M203.9,322.9H216l19.9,17.7c-0.1,0-0.2,0-0.3,0h-63.3c-1,0-1.7,0.8-1.7,1.7s0.8,1.7,1.7,1.7h63.3c1,0,1.7-0.8,1.7-1.7   c0-0.2,0-0.4-0.1-0.5l7.9,7.1l7.5,6.7l3.1,2.8h-68.7c-0.5-1-0.8-1.9-1.2-2.8c-1.4-3.6-1.8-6.1-1.8-6.1c-0.2-1.3-1.3-2.2-2.6-2.2   h-51c-1.3,0-2.4,0.9-2.6,2.2c0,0-0.4,2.5-1.8,6.1c-0.3,0.9-0.7,1.8-1.2,2.8H67l3.1-2.8L83,344.1h35.2c1,0,1.7-0.8,1.7-1.7   s-0.8-1.7-1.7-1.7H87l28.3-25.2h10.5h2.5c1,0,1.7-0.8,1.7-1.7s-0.8-1.7-1.7-1.7h-1.8h-7.2l4.3-3.8h3.7h5.8h24h5.6h19   c1,0,1.7-0.8,1.7-1.7s-0.8-1.7-1.7-1.7h-19.1H157h-23.5h-5.7h-0.4l0.5-0.5l3.7-3.3h2.4h23h5.3h10.3c1,0,1.7-0.8,1.7-1.7   s-0.8-1.7-1.7-1.7h-10.3h-5.2h-21.5l3.4-3.1h16c1,0,1.7-0.8,1.7-1.7s-0.8-1.7-1.7-1.7h-12.1l5.4-4.8h9h4.8h12.4l9.9,8.8l6.4,5.7   l12.8,11.4h-10.6h-5.9h-24.5h-5.8h-12.7c-1,0-1.7,0.8-1.7,1.7s0.8,1.7,1.7,1.7h12.6h5.9h25h6.1h13.7c0,0,0.1,0,0.1,0l4.5,4h-8.2   c-1,0-1.7,0.8-1.7,1.7C202.2,322.1,203,322.9,203.9,322.9z M113.5,380.7c0.9-0.7,1.8-1.4,2.7-2.2c0.5-0.4,1-0.9,1.5-1.3   c0.4-0.4,0.8-0.8,1.2-1.2c3.2-3.2,5.7-6.5,7.5-9.4c0.4-0.6,0.7-1.1,1-1.7c0.7-1.1,1.2-2.3,1.8-3.3c0.1-0.3,0.3-0.6,0.4-0.9   c0-0.1,0.1-0.2,0.1-0.2c0.4-0.8,0.7-1.5,1-2.2c0.4-1,0.8-1.9,1-2.8c0.4-1.2,0.7-2.3,0.9-3.1h46.8c0.2,0.8,0.5,1.9,0.9,3.1   c0.3,0.9,0.6,1.8,1,2.8c0.3,0.7,0.6,1.4,1,2.2c0,0.1,0.1,0.2,0.1,0.2c0.1,0.3,0.3,0.6,0.4,0.9c0.5,1.1,1.1,2.2,1.8,3.3   c0.3,0.6,0.7,1.1,1,1.7c1.5,2.4,3.5,5.1,6,7.8c0.8,0.9,1.7,1.8,2.7,2.7c0,0,0,0,0.1,0.1c0.8,0.8,1.7,1.5,2.6,2.3   c0.5,0.4,0.9,0.7,1.4,1.1c0.8,0.6,1.7,1.2,2.5,1.8c0,0,0.1,0.1,0.1,0.1c0.6,0.4,1.1,0.7,1.7,1.1c0.3,0.2,0.6,0.4,0.9,0.6   c0.4,0.3,0.9,0.5,1.3,0.8h-1.3h-2.6h-0.2h-2.4h-1.4h-2.6H192h-73.3H116h-2.6h-1.2H112h-2.6h-2.5c0.8-0.4,1.5-0.9,2.3-1.3   c0.1,0,0.1-0.1,0.2-0.1c0.9-0.6,1.8-1.2,2.7-1.8c0,0,0.1-0.1,0.1-0.1C112.7,381.3,113.1,381,113.5,380.7z M112.2,375.1l0.1-4.9   c0,0,0,0,0,0l1.3,0c0,0,0,0,0,0l-0.1,3.6C113.2,374.3,112.7,374.7,112.2,375.1z M114.4,365h6.9c-0.8,1.2-1.7,2.4-2.6,3.5   c-0.2-0.7-0.6-1.4-1.2-1.9C116.7,365.7,115.6,365.1,114.4,365z M190.8,365h5.4c-1.2,0.2-2.3,0.7-3.1,1.6c-0.2,0.2-0.4,0.5-0.6,0.7   C191.9,366.5,191.4,365.8,190.8,365z M196.9,370.2C196.9,370.2,196.9,370.2,196.9,370.2l1.4-0.1c0,0,0,0,0,0c0,0,0,0,0,0l0.1,3.6   c-0.5-0.4-1-0.9-1.4-1.4L196.9,370.2z M186,272.9v2.1c0,0-0.1,0.1-0.1,0.1c-0.6,0.5-2,1.2-4.3,1.8c-1.2,0.3-2.6,0.7-4.2,0.9   c-3.9,0.7-9.1,1.3-15.5,1.3c-0.3,0-0.5,0-0.8,0c-1.3,0-2.6,0-3.8-0.1c-5-0.2-9.2-0.6-12.4-1.2c-3.2-0.6-5.6-1.3-7-2   c-0.7-0.3-1.2-0.6-1.5-0.9v-2.1v-12.2c1.1,0.4,2.3,0.8,3.7,1.2c0.4,0.1,0.7,0.2,1.1,0.3c4.5,1.1,10.2,1.7,16.4,1.9   c1.2,0,2.3,0.1,3.5,0.1c0.2,0,0.3,0,0.5,0c6.5,0,12.7-0.6,17.6-1.6c0.6-0.1,1.2-0.3,1.8-0.4c0.7-0.2,1.4-0.4,2.1-0.5   c1-0.3,1.9-0.6,2.7-0.9V272.9z M176.9,247.1c-2.4-0.4-5.1-0.7-7.9-0.9v-12.4h5.8L176.9,247.1z M148.8,225.8h9.6c0,0,0,0,0,0   c1.3,0,2.4-1,2.6-2.2c0-0.1,0-0.3,0-0.4v-10.4h2.8v10.4c0,1.4,1.2,2.6,2.6,2.6h7.2h2.4v2.8h-2h-7.6c-1.4,0-2.6,1.2-2.6,2.6V246   v2.6v2.6v0.9h-2.3H161v-0.9v-2.6V246v-14.8c0-1.4-1.2-2.6-2.6-2.6h0h-9.6V225.8z M144.7,233.4c0.4,0.3,0.9,0.5,1.5,0.5h9.6v12.3   c-4.9,0.2-9.5,0.8-13.3,1.6L144.7,233.4z M137.5,254.7c0.9-0.4,2.2-0.9,4-1.4c1.1-0.3,2.4-0.6,3.8-0.8c2.8-0.5,6.3-0.9,10.4-1.1   v1.1v2.3c0,0.1,0,0.2,0,0.3c0.1,1.1,1,2,2,2.2c0.2,0,0.4,0.1,0.6,0.1h3.2h4.8c1.3,0,2.4-1,2.6-2.3c0-0.1,0-0.2,0-0.3v-2.3v-1   c3.1,0.2,5.8,0.6,8.1,1c0.2,0,0.5,0.1,0.7,0.1c1.5,0.3,2.8,0.6,3.9,0.9c1.9,0.5,3.2,1.1,3.9,1.6l0,0c-0.6,0.4-1.7,0.9-3.3,1.4   c-1,0.3-2.3,0.6-3.7,0.9c-0.5,0.1-0.9,0.2-1.5,0.3c-3.9,0.7-9.1,1.2-15.5,1.2c-0.1,0-0.3,0-0.4,0c-1.2,0-2.3,0-3.4,0   c-5-0.1-9.1-0.6-12.4-1.2c-1.7-0.3-3.2-0.6-4.4-1c-1.6-0.4-2.8-0.9-3.6-1.3c-0.2-0.1-0.4-0.2-0.5-0.3l0,0   C137.1,255,137.3,254.8,137.5,254.7z M90.8,294.7l7.9,4.3l5.1,2.8l5.3,2.9c0.3,0.1,0.6,0.2,0.8,0.2c0.6,0,1.2-0.3,1.5-0.9   c0.5-0.8,0.1-1.9-0.7-2.4l-5.9-3.2l-5-2.7l-4.9-2.7l6.1-2.4l0.6,0.4l4.7,2.6c0,0,0.1,0,0.1,0c0.2,0.1,0.5,0.2,0.7,0.2   c0.6,0,1.2-0.3,1.5-0.9c0.5-0.8,0.1-1.9-0.7-2.4l-0.4-0.2l-2.4-1.3l3.2-1.3l23.8-9.4c0.1,0.1,0.3,0.3,0.4,0.4   c1,0.9,2.4,1.8,4.3,2.5c0.3,0.1,0.6,0.2,1,0.3l2.9,1.7l-4.9,4.3l-6.1,5.4l-20.9,18.6l-7.4-4l-5.3-2.9l-12.9-7L90.8,294.7z    M60,382.6v43.4l-47.1-31v-42.7v-16.3l43.2,28.5c0.6,0.4,1.2,0.5,1.8,0.5c0.1,0,0.1,0,0.2,0c0.1,0,0.1,0,0.2,0H60V382.6z    M61.4,354.2l-3.7,3.3l-47.1-31l5.4-2.1l8-3.2c0,0.6,0.4,1.1,0.9,1.4L67.8,346c0.3,0.1,0.6,0.2,0.8,0.2c0.6,0,1.2-0.3,1.5-0.9   c0.5-0.8,0.1-1.9-0.7-2.4l-42.3-23l32-12.6l8.7-3.4l0.5,0.3l24.9,13.6l1.5,0.8c0.3,0.1,0.6,0.2,0.8,0.2c0.6,0,1.2-0.3,1.5-0.9   c0.5-0.8,0.1-1.9-0.7-2.4l-3.5-1.9l-21-11.4l7.2-2.8l15.9,8.7l5.4,2.9l5.8,3.2l-26.5,23.6c-0.1-0.1-0.2-0.1-0.3-0.2l-33.1-18   c-0.8-0.5-1.9-0.1-2.4,0.7c-0.5,0.8-0.1,1.9,0.7,2.4l32.3,17.6L61.4,354.2z M65.3,428.2v-44.5V365h46.2c-2.4,0.4-4.3,2.5-4.4,5.1   l-0.2,8.9c-1.3,0.8-2.6,1.5-3.9,2.2l-2.1-9.2c-0.3-1.4-1.1-2.5-2.3-3.3c-1.2-0.8-2.6-1-4-0.7l-1.3,0.3c-2.9,0.6-4.7,3.4-4.1,6.3   c0,0,0,0,0,0l2.1,9.2l0.5,2c0,0-0.1,0.1-0.1,0.1c0,0,0,0-0.1,0.1c0,0-0.1,0.1-0.1,0.1c0,0,0,0.1-0.1,0.1c0,0-0.1,0.1-0.1,0.1   c0,0,0,0.1-0.1,0.1c0,0,0,0.1-0.1,0.1c0,0,0,0.1-0.1,0.1c0,0.1-0.1,0.1-0.1,0.2c0,0,0,0.1,0,0.1c0,0,0,0.1,0,0.1c0,0,0,0.1,0,0.1   c0,0,0,0.1,0,0.1c0,0,0,0.1,0,0.1c0,0.1,0,0.1,0,0.2c0,0,0,0.1,0,0.1c0,0.1,0,0.1,0,0.2c0,0,0,0,0,0.1v14.9c0,1.4,1.2,2.6,2.6,2.6   h2.8l5.3,23H65.3z M98.1,383.3c-0.3,0.1-0.6,0.2-0.9,0.3c-0.2,0.1-0.3,0.1-0.5,0.2l0-0.2l-2.4-10.3c0,0,0,0,0,0l1.3-0.3   c0,0,0,0,0.1,0c0,0,0,0,0,0L98.1,383.3z M111.7,442.7l-1.3,0.3c0,0,0,0-0.1,0c0,0,0,0,0,0l-2.1-9.1l-0.1-0.4l-1.2-5.2l-1.1-4.7   l-4.2-18.3h1.4l2.9,12.6l2.4,10.4l0,0.1l1.2,5.2l1.2,5.1l0.7,3L111.7,442.7C111.7,442.6,111.7,442.7,111.7,442.7z M112.5,422.8   l-0.3-1.3l-1-4.2l0.3-12.1h0.7h0.7L112.5,422.8z M117.6,428.2l0.5-23h74.3l0.5,23H117.6z M194.9,399.9h-2.6h-74h-2.6h-2.6h-0.8   h-0.6H109h-1.8h-0.9h-1.8h-2.7h-1.4h-2.7h-1.6v-7.1v-2.6h2.1h1.4h2.7h2.7h1.6h2.6h2.6h0.3h1.1h2.6h2.6h73.6h2.6h2.6h1.4h2.3h0.3   h2.6h1.6h2.7h2.7h1.4h2.7h0.9v7.8v1.9h-0.4h-2.7h-2.7h-1.4h-2.7h-1.8h-0.9h-1.8h-0.5H199h-1.4H194.9z M212.7,382.8l2.2-9.7   c0,0,0,0,0,0c0,0,0,0,0.1,0l1.3,0.3c0,0,0,0,0,0l-2.3,10C213.5,383.1,213.1,382.9,212.7,382.8z M197.7,405.1h1.4l0.3,12.1   l-1.3,5.5L197.7,405.1z M204.8,423.4l-1.1,4.7l-1.2,5.2l-0.1,0.4l-2.1,9.1c0,0,0,0,0,0c0,0,0,0-0.1,0l-1.3-0.3c0,0,0,0,0,0   l0.3-1.1l0.7-3l1.2-5.1l1.2-5.2l0-0.1l2.4-10.4l2.9-12.6h1.4L204.8,423.4z M258.8,383.6v44.5h-49.8l5.3-23h4.3   c1.4,0,2.6-1.2,2.6-2.6v-14.9c0,0,0,0,0-0.1c0-0.1,0-0.1,0-0.2c0,0,0-0.1,0-0.1c0-0.1,0-0.1,0-0.2c0,0,0-0.1,0-0.1   c0,0,0-0.1,0-0.1c0,0,0-0.1,0-0.1c0,0,0-0.1,0-0.1c0,0,0-0.1,0-0.1c0-0.1-0.1-0.1-0.1-0.2c0,0,0-0.1-0.1-0.1c0,0,0-0.1-0.1-0.1   c0,0,0-0.1-0.1-0.1c0,0-0.1-0.1-0.1-0.1c0,0,0-0.1-0.1-0.1c0,0-0.1-0.1-0.1-0.1c0,0,0,0-0.1-0.1c0,0-0.1-0.1-0.1-0.1   c0,0-0.1,0-0.1-0.1c0,0-0.1-0.1-0.1-0.1c0,0-0.1,0-0.1-0.1c0,0-0.1,0-0.1-0.1c0,0-0.1,0-0.1-0.1c0,0-0.1,0-0.1-0.1   c0,0-0.1,0-0.1-0.1c0,0-0.1,0-0.1,0c0,0-0.1,0-0.1,0c0,0,0,0,0,0c-0.1,0-0.2-0.1-0.3-0.1l0.3-1.3l2.1-9.2c0,0,0,0,0,0   c0.6-2.9-1.2-5.7-4.1-6.3l-1.3-0.3c-1.4-0.3-2.8,0-4,0.7c-1.2,0.8-2,1.9-2.3,3.3l-2,8.5c-1.4-0.8-2.8-1.6-4.1-2.5l-0.2-7.9   c0-1.4-0.6-2.7-1.6-3.7c-0.8-0.7-1.7-1.2-2.7-1.4h59.7V383.6z M311.2,352.2v42.7l-47.1,31v-43.4V365h0.5h0h0c0,0,0,0,0,0   c0.1,0,0.3,0,0.4,0c0,0,0,0,0,0c0.1,0,0.3-0.1,0.4-0.1c0,0,0,0,0,0c0.1,0,0.3-0.1,0.4-0.2c0,0,0,0,0.1,0c0.1-0.1,0.3-0.1,0.4-0.2   c0,0,0,0,0,0l44.8-29.6V352.2z M264.8,357.5L264.8,357.5l-3-2.7l-19.4-17.3h0l31.7-17.3c0.8-0.5,1.2-1.5,0.7-2.4   c-0.5-0.8-1.5-1.2-2.4-0.7L239.6,335l0,0l-26.5-23.6h0l5-2.7l5.3-2.9l15.3-8.3l7.2,2.8l-20.3,11.1l-3.2,1.7   c-0.8,0.5-1.2,1.5-0.7,2.4c0.3,0.6,0.9,0.9,1.5,0.9c0.3,0,0.6-0.1,0.8-0.2l2.7-1.5l23.1-12.6l0.2-0.1l9.3,3.7l31.4,12.4   l-41.3,22.5c-0.8,0.5-1.2,1.5-0.7,2.4c0.3,0.6,0.9,0.9,1.5,0.9c0.3,0,0.6-0.1,0.8-0.2l42.9-23.4c0.3-0.2,0.5-0.4,0.7-0.6l12.9,5.1   l4.4,1.7L264.8,357.5z"></path>		<path class="st0" d="M280.3,389.7c1.4,0,2.6-1.2,2.6-2.6v-16.7v-6.6c0-1.4-1.2-2.6-2.6-2.6c-1.4,0-2.6,1.2-2.6,2.6v10v13.3   C277.6,388.6,278.8,389.7,280.3,389.7z"></path>		<path class="st0" d="M295.9,379.5c1.4,0,2.6-1.2,2.6-2.6v-16.5v-6.8c0-1.4-1.2-2.6-2.6-2.6c-1.4,0-2.6,1.2-2.6,2.6v10.2v13.1   C293.3,378.3,294.4,379.5,295.9,379.5z"></path>		<path class="st0" d="M42,361.2c-1.4,0-2.6,1.2-2.6,2.6v5.4v17.9c0,1.4,1.2,2.6,2.6,2.6c1.4,0,2.6-1.2,2.6-2.6v-14.5v-8.8   C44.6,362.3,43.4,361.2,42,361.2z"></path>		<path class="st0" d="M26.3,350.9c-1.4,0-2.6,1.2-2.6,2.6v5.6v17.7c0,1.4,1.2,2.6,2.6,2.6s2.6-1.2,2.6-2.6v-14.3v-9   C29,352.1,27.8,350.9,26.3,350.9z"></path>		<path class="st0" d="M163.9,322.9h19.2c1,0,1.7-0.8,1.7-1.7c0-1-0.8-1.7-1.7-1.7h-19.2c-1,0-1.7,0.8-1.7,1.7   C162.2,322.1,163,322.9,163.9,322.9z"></path>		<path class="st0" d="M200.8,326h-43.4c-1,0-1.7,0.8-1.7,1.7s0.8,1.7,1.7,1.7h43.4c1,0,1.7-0.8,1.7-1.7S201.7,326,200.8,326z"></path>		<path class="st0" d="M144.6,335c0,1,0.8,1.7,1.7,1.7h63.3c1,0,1.7-0.8,1.7-1.7s-0.8-1.7-1.7-1.7h-63.3   C145.4,333.3,144.6,334.1,144.6,335z"></path>		<path class="st0" d="M156.3,340.6h-14.7c-1,0-1.7,0.8-1.7,1.7s0.8,1.7,1.7,1.7h14.7c1,0,1.7-0.8,1.7-1.7S157.3,340.6,156.3,340.6z   "></path>		<path class="st0" d="M238.7,319c0.3,0,0.6-0.1,0.8-0.2l13.1-7.1c0.8-0.5,1.2-1.5,0.7-2.4c-0.5-0.8-1.5-1.2-2.4-0.7l-13.1,7.1   c-0.8,0.5-1.2,1.5-0.7,2.4C237.5,318.7,238.1,319,238.7,319z"></path>		<path class="st0" d="M264.7,310.8l-1.7,0.9l-6,3.2l-21.8,11.9c-0.8,0.5-1.2,1.5-0.7,2.4c0.3,0.6,0.9,0.9,1.5,0.9   c0.3,0,0.6-0.1,0.8-0.2l22-12l5.6-3.1l1.9-1c0.8-0.5,1.2-1.5,0.7-2.4C266.6,310.6,265.5,310.3,264.7,310.8z"></path>		<path class="st0" d="M66.3,314l13.1,7.1c0.3,0.1,0.6,0.2,0.8,0.2c0.6,0,1.2-0.3,1.5-0.9c0.5-0.8,0.1-1.9-0.7-2.4L68,310.9   c-0.8-0.5-1.9-0.1-2.4,0.7C65.2,312.4,65.5,313.5,66.3,314z"></path>		<path class="st0" d="M52.6,316.1L82,332.2c0.3,0.1,0.6,0.2,0.8,0.2c0.6,0,1.2-0.3,1.5-0.9c0.5-0.8,0.1-1.9-0.7-2.4l-22.3-12.2   l-6-3.3l-1.1-0.6c-0.8-0.5-1.9-0.1-2.4,0.7C51.4,314.6,51.7,315.6,52.6,316.1z"></path>		<path class="st0" d="M117.9,69.6l2.1-1.2l-7.7-13.9c-0.2-0.4-0.5-0.6-0.9-0.7c-0.4-0.1-0.8-0.1-1.2,0.1h0c-0.4,0.2-0.6,0.6-0.7,1   c-0.1,0.4,0,0.8,0.2,1.2L117.9,69.6z"></path>		<path class="st0" d="M106.3,78l1.9-1.6L90.3,54.3c-0.3-0.4-0.8-0.6-1.4-0.6c-0.7,0-1.3,0.4-1.6,1c-0.3,0.6-0.2,1.4,0.3,1.9   L106.3,78z"></path>		<path class="st0" d="M58.3,57.4l38.1,30.8l1.6-1.9L61.1,54.2c-0.4-0.3-0.9-0.5-1.4-0.5c-0.9,0-1.7,0.6-2,1.4   C57.4,55.9,57.6,56.8,58.3,57.4z"></path>		<path class="st0" d="M264.7,57l-38.1,30.8l-1.6-1.9L262,53.7c0.4-0.3,0.9-0.5,1.4-0.5c0.9,0,1.7,0.6,2,1.4   C265.7,55.5,265.4,56.4,264.7,57z"></path>		<path class="st0" d="M38.3,72.2L88.4,100l1.2-2.1L40.6,68.3c-0.7-0.4-1.6-0.4-2.3,0c-0.7,0.4-1.2,1.2-1.2,2   C37.1,71.1,37.6,71.8,38.3,72.2z"></path>		<path class="st0" d="M282.4,72.2L232.3,100l-1.2-2.1l49.1-29.5c0.7-0.4,1.6-0.4,2.3,0c0.7,0.4,1.2,1.2,1.2,2   C283.6,71.1,283.2,71.8,282.4,72.2z"></path>		<path class="st0" d="M38.5,97.8l44.1,15.1l0.8-2.3L40,93.9c-0.6-0.2-1.4-0.2-1.9,0.2c-0.6,0.4-0.9,1-0.9,1.7   C37.1,96.7,37.7,97.5,38.5,97.8z"></path>		<path class="st0" d="M38.8,120.4l40.3,6.4l0.4-2.4l-40.1-7.8c-0.6-0.1-1.2,0-1.6,0.4c-0.5,0.4-0.7,0.9-0.7,1.5   C37.1,119.4,37.8,120.2,38.8,120.4z"></path>		<path class="st0" d="M39.1,141.6C39.1,141.6,39.1,141.6,39.1,141.6l39-0.7v-2.4l-39-0.7c-0.5,0-1,0.2-1.4,0.6   c-0.4,0.4-0.6,0.9-0.6,1.4s0.2,1,0.6,1.4C38.1,141.4,38.6,141.6,39.1,141.6z"></path>		<path class="st0" d="M37.9,162.5c0.4,0.3,0.8,0.4,1.2,0.4c0.1,0,0.3,0,0.4,0l40.1-7.8l-0.4-2.4L38.8,159c-1,0.2-1.7,1-1.7,1.9   C37.1,161.6,37.4,162.1,37.9,162.5z"></path>		<path class="st0" d="M38,185.3c0.4,0.2,0.8,0.4,1.2,0.4c0.3,0,0.5,0,0.7-0.1l43.5-16.7l-0.8-2.3l-44.1,15.1   c-0.8,0.3-1.4,1.1-1.4,2C37.1,184.2,37.5,184.9,38,185.3z"></path>		<path class="st0" d="M38.3,211.1c0.3,0.2,0.7,0.3,1.1,0.3c0.4,0,0.8-0.1,1.2-0.3l49.1-29.5l-1.2-2.1l-50.1,27.7   c-0.7,0.4-1.2,1.2-1.2,2C37.1,210,37.6,210.7,38.3,211.1z"></path>		<path class="st0" d="M38.7,242.7c0.4,0.2,0.7,0.2,1.1,0.2c0.6,0,1.2-0.2,1.7-0.6L98,193.1l-1.6-1.9l-58.3,47.2c-0.6,0.5-1,1.2-1,2   C37.1,241.4,37.7,242.3,38.7,242.7z"></path>		<path class="st0" d="M39.2,285c0.4,0.1,0.7,0.2,1.1,0.2c0.9,0,1.8-0.4,2.4-1.2l65.5-81l-1.9-1.6L37.9,280   c-0.5,0.6-0.8,1.3-0.8,2.1C37.1,283.4,38,284.6,39.2,285z"></path>		<path class="st0" d="M213.1,201.4l-1.9,1.6l65.5,81c0.6,0.8,1.5,1.2,2.4,1.2c0.4,0,0.7-0.1,1.1-0.2c1.3-0.4,2.1-1.6,2.1-2.9   c0-0.8-0.3-1.5-0.8-2.1L213.1,201.4z"></path>		<path class="st0" d="M281.3,238.4L223,191.2l-1.6,1.9l56.6,49.2c0.5,0.4,1.1,0.6,1.7,0.6c0.4,0,0.7-0.1,1.1-0.2   c0.9-0.4,1.5-1.3,1.5-2.4C282.3,239.6,282,238.9,281.3,238.4z"></path>		<path class="st0" d="M282.3,209.1c0-0.8-0.4-1.5-1.1-1.9L231,179.4l-1.2,2.1l49.2,29.6c0.3,0.2,0.7,0.3,1.1,0.3   c0.4,0,0.7-0.1,1.1-0.3c0.7-0.4,1.1-1.1,1.1-1.9V209.1z"></path>		<path class="st0" d="M280.9,181.6l-44.1-15.1l-0.8,2.3l43.5,16.7c0.2,0.1,0.5,0.1,0.7,0.1c0.4,0,0.8-0.1,1.2-0.4   c0.6-0.4,0.9-1,0.9-1.7C282.3,182.7,281.7,181.9,280.9,181.6z"></path>		<path class="st0" d="M280.6,159l-40.3-6.4l-0.4,2.4l40.1,7.8c0.1,0,0.3,0,0.4,0c0.5,0,0.9-0.2,1.2-0.4c0.5-0.4,0.7-0.9,0.7-1.5   C282.3,160,281.6,159.2,280.6,159z"></path>		<path class="st0" d="M281.7,138.3c-0.4-0.4-0.9-0.6-1.4-0.6l-39,0.7v2.4l39,0.7c0,0,0,0,0,0c0.5,0,1-0.2,1.4-0.6   c0.4-0.4,0.6-0.9,0.6-1.4S282.1,138.7,281.7,138.3z"></path>		<path class="st0" d="M281.6,116.9c-0.5-0.4-1-0.5-1.6-0.4l-40.1,7.8l0.4,2.4l40.3-6.4c1-0.2,1.7-1,1.7-1.9   C282.3,117.8,282,117.3,281.6,116.9z"></path>		<path class="st0" d="M281.4,94.1c-0.6-0.4-1.3-0.5-1.9-0.2L236,110.6l0.8,2.3l44.1-15.1c0.8-0.3,1.4-1.1,1.4-2   C282.3,95.1,282,94.5,281.4,94.1z"></path>		<path class="st0" d="M211,56.2c0.2-0.4,0.3-0.8,0.2-1.3c-0.1-0.4-0.4-0.8-0.8-1c-0.8-0.4-1.8-0.1-2.2,0.6l-7.6,13.8l2.1,1.2   L211,56.2z"></path>		<path class="st0" d="M231.1,54.8c-0.3-0.6-0.9-1-1.6-1c-0.5,0-1,0.2-1.4,0.6l-15.1,18.7l1.8,1.9l16-18.4   C231.3,56.1,231.4,55.4,231.1,54.8z"></path>	</g>	<g>		<path class="st0" d="M131.8,69L154,82c1.4,0.8,2.9,1.2,4.4,1.2c1.6,0,3.3-0.5,4.8-1.4l23-15c2.2-1.5,3.7-3.8,3.9-6.5l0.7-8.1   l0.2-2l0.3-3.4v-1.1c0-2.2-1.6-4-3.7-4.4c-0.1,0-0.2,0-0.3,0l0,0l0,0c-0.4,0-0.7,0-1.1,0.1c-0.2,0.1-0.4,0.1-0.7,0.2l-7.1,3.1   l-0.1,0.4l0-0.4l-1.2,0.5c-1.1,0.5-2.4-0.4-2.4-1.6l0.1-2.6l0.6-15.7c0.1-3.1-1.5-6.1-4.1-7.8l-10.6-6.5l-1.7-1.1l-15.3-9.4   c-1.9-1.2-4.3-0.9-5.9,0.5c-0.2,0.1-0.3,0.3-0.5,0.5c-1.3,1.5-1.6,3.6-0.7,5.3l2.4,5.1l6.2,13.4c0.4,0.9,0.4,1.9-0.1,2.7l-2.4,4.2   l-1.4,2.6l-3.4,6l-3.2,5.7l-4.2,7.5l-0.3,0.4l-1.4,2.5C126.3,61.4,127.7,66.7,131.8,69z M160,77.1c-1,0.6-2.2,0.6-3.1,0.1   l-3.1-1.8l-1.7-10.2l3.6-7.2l6.6,17.6L160,77.1z M133.6,60.1l8.2-14.5c0.1-0.1,0.1-0.2,0.2-0.4l1.2-2l0.3-0.5l0.4-0.6l6.2-11   c1.4-2.4,1.5-5.4,0.3-7.9l-7.6-16.3l16.4,10l1.5,0.9l7.7,4.7c0.9,0.6,1.5,1.6,1.4,2.7l-0.7,18.5c0,0.1,0,0.2,0,0.3c0,0,0,0,0,0.1   l-0.1,3.2c-0.1,1.5,0.7,3,1.9,3.9c1.1,0.8,2.5,1.1,3.8,0.7c0.1,0,0.2-0.1,0.4-0.1c0.1,0,0.1,0,0.2-0.1l10.3-4l-1.1,12   c-0.1,0.9-0.6,1.7-1.3,2.2l-15.9,10.4L160,53.3l-0.2-0.7l-3.3-8.9l-10.3,20.6l1.3,7.3l-12.7-7.4C133.3,63.3,132.8,61.5,133.6,60.1   z"></path>		<path class="st0" d="M219.9,121.1c-0.2-5.6-1.8-11-4.7-15.7c0,0-7.5-10.8-19.3-14.7c-2.8-0.8-5.7-1.2-8.7-1.2   c-8.7,0-17,3.4-23.2,9.6l-4.6,4.6l-4.6-4.6c-6.2-6.2-14.4-9.6-23.2-9.6c-8.8,0-17,3.4-23.2,9.6c-6.3,6.3-9.7,15-9.6,23.8   c-1.8,1.2-3.5,2.9-4.6,5.2c-0.3,0.7-0.3,1.5,0,2.1c-1.1,1.6-2,4-2,7.5c0,13.2,10.5,16.8,16.1,16.9c2.7,0,5.2-0.6,7.5-1.7l7.2,7.2   l4.1,4.1l0,0l3.4,3.4l0,0l2.9,2.9l2.5,2.5l0,0l4.1,4.1l17,17c0.5,0.5,1.1,0.8,1.8,0.9c0.2,0.1,0.4,0.1,0.7,0.1   c0.9,0,1.8-0.4,2.4-1l42-42c3,1.9,6.4,2.6,8.8,2.6c9.6,0,17.4-7.8,17.4-17.5C230.1,129.9,225.9,123.8,219.9,121.1z M108.4,149.1   c-0.5,0-10.8-0.2-10.8-11.5c0-2.3,0.6-4.1,1.7-5.1c1.1-1.1,2.6-1.3,3.7-1.3c2.9,0,6.4,1.9,7,4.3c0.4,1.3,0.5,4.1-3.2,8.2   c0,0,7.8-1.3,8.6-6.1c0-0.4,0.1-0.9,0.1-1.3c0-0.4-0.1-0.7-0.1-1c-0.6-5-5.6-8.6-10.7-9.3c1.5-0.6,3-0.9,3.9-1   c6.6,0.1,12,5.5,12,12.1C120.5,143.7,115.1,149.1,108.4,149.1z M184.6,144.6c0-0.4,0-0.9,0-1.3c-0.1-0.4-0.1-0.7-0.1-1   c-0.9-5-6.2-8.2-11.3-8.5c1.5-0.7,2.9-1.1,3.8-1.3c6.6-0.4,12.3,4.6,12.8,11.2c0.5,6.7-4.6,12.5-11.2,13   c-0.5,0-10.7,0.6-11.6-10.7c-0.2-2.3,0.3-4.1,1.3-5.2c1.1-1.2,2.5-1.5,3.6-1.6c2.9-0.2,6.5,1.4,7.3,3.8c0.5,1.3,0.8,4.1-2.6,8.4   C176.5,151.4,184.1,149.5,184.6,144.6z M198.7,130.1c-1.1,1.6-2,4-2,7.5c0,3.9,0.9,7,2.4,9.4l-6.1,6.2c1.6-2.9,2.4-6.2,2.2-9.8   c-0.7-9.6-9.1-16.8-18.7-16.2c-0.1,0-0.2,0-0.3,0c-0.4,0.1-10.3,2-13,9.5c-0.3,0.7-0.2,1.5,0.1,2.1c-1,1.7-1.7,4.1-1.5,7.6   c1,13.2,11.7,16,17.2,15.6c2.6-0.2,5.1-1,7.2-2.2l-26.7,26.7l-38-38c2.7-3.1,4.4-7.1,4.4-11.6c0-9.6-7.8-17.5-17.4-17.5   c-0.1,0-0.2,0-0.3,0c-0.1,0-0.9,0.1-2.2,0.4c0.5-6,3.1-11.6,7.5-16c4.9-4.9,11.4-7.6,18.3-7.6c6.9,0,13.4,2.7,18.3,7.6l7,7   c0.6,0.6,1.5,0.9,2.4,0.9c0.5,0,1.1-0.1,1.5-0.3c0.4-0.2,0.7-0.4,0.9-0.6l7-7c4.9-4.9,11.4-7.6,18.3-7.6c0.9,0,1.7,0,2.6,0.1   c0,0,15.9,2.6,20.3,13.7c1.5,2.9,2.5,6,2.8,9.3h-0.2c-0.1,0-0.2,0-0.3,0c-0.4,0.1-10.4,1.3-13.7,8.5   C198.4,128.7,198.4,129.5,198.7,130.1z M212.7,149.1c-0.5,0-10.8-0.2-10.8-11.5c0-2.3,0.6-4.1,1.7-5.1c1.1-1.1,2.6-1.3,3.7-1.3   c2.9,0,6.4,1.9,7,4.3c0.4,1.3,0.5,4.1-3.2,8.2c0,0,7.8-1.3,8.6-6.1c0-0.4,0.1-0.9,0.1-1.3c0-0.4,0-0.7-0.1-1   c-0.6-5-5.6-8.6-10.7-9.3c1.5-0.6,3-0.9,3.9-1c6.6,0.1,12,5.5,12,12.1C224.8,143.7,219.4,149.1,212.7,149.1z"></path>		<path class="st0" d="M159.4,141.8c-0.1-1.9-0.8-4.4-2.9-7.2c-8-10.5-18.5-7-23-3.7c-7.7,5.8-9.2,16.8-3.3,24.5   c5.8,7.7,16.8,9.1,24.5,3.3c0.1-0.1,0.2-0.1,0.2-0.2c0.3-0.3,7.5-7.3,5.7-15.1C160.4,142.8,160,142.2,159.4,141.8z M154,143   c-0.2,1.6-1.3,2.7-2.1,3.3c-2.3,1.8-6.2,2.4-8.2,0.8c-1.1-0.8-2.9-3-2.4-8.5c0,0-5.4,5.7-3.1,10.1c0.2,0.3,0.5,0.7,0.7,1.1   c0.3,0.3,0.5,0.5,0.7,0.7c3.5,3.7,9.7,3.5,14.1,0.9c-0.9,1.4-1.8,2.5-2.5,3.2c-5.3,3.9-12.9,2.9-16.9-2.4c-4-5.3-3-13,2.3-17   c0.3-0.3,8.7-6.3,15.5,2.7C153.6,139.7,154.2,141.5,154,143z"></path>	</g></g></svg>