<svg xmlns="http://www.w3.org/2000/svg" width="91" height="127" viewBox="0 0 91 127" fill="none"><path d="M90.9905 91.8524C90.9738 91.6823 90.9107 91.5201 90.808 91.3836C90.7053 91.247 90.567 91.1413 90.4083 91.0781L71.5858 83.655L56.8795 59.2027L56.2973 59.5462L69.0649 82.6536L60.2853 79.1605L53.299 60.9434L52.6469 61.1822L58.5853 78.5142L53.9277 76.6978V72.0402C53.9277 71.1378 53.002 70.4799 51.0924 70.0258L50.9178 69.9908L50.1434 66.0319H50.3647C50.4647 66.0358 50.5645 66.0194 50.6579 65.9837C50.7514 65.9479 50.8367 65.8935 50.9085 65.8239C50.9804 65.7542 51.0374 65.6706 51.076 65.5783C51.1146 65.486 51.1341 65.3867 51.1332 65.2867V63.0161C51.1332 62.9185 51.1139 62.8219 51.0764 62.7318C51.0388 62.6417 50.9838 62.5599 50.9146 62.4912C50.8453 62.4224 50.7631 62.3681 50.6727 62.3313C50.5823 62.2945 50.4856 62.2759 50.388 62.2767H47.6807V59.3308C47.6807 59.1347 47.6029 58.9466 47.4642 58.8079C47.3255 58.6693 47.1374 58.5914 46.9414 58.5914H44.6824C44.4863 58.5914 44.2983 58.6693 44.1596 58.8079C44.0209 58.9466 43.943 59.1347 43.943 59.3308V62.2767H41.2358C41.1099 62.2766 40.9861 62.3086 40.8761 62.3697C40.766 62.4309 40.6734 62.5191 40.607 62.626C40.5354 62.7435 40.4971 62.8784 40.4964 63.0161V63.2024L39.1282 70.1888C37.7135 70.6312 37.0207 71.2251 37.0207 72.0052V76.6628L31.4258 78.8694L37.5039 61.2113L36.8519 60.9726L29.6908 79.6029L20.8239 83.0961L33.8361 59.5753L33.2539 59.2318L18.2797 84.1091L0.58669 91.0955C0.427964 91.1588 0.289699 91.2645 0.187015 91.4011C0.0843305 91.5376 0.021184 91.6998 0.00449115 91.8699C-0.012235 92.0407 0.0179511 92.2128 0.0918174 92.3677C0.165684 92.5226 0.280431 92.6544 0.423675 92.749L2.17027 93.9134V111.962C2.16918 112.084 2.19902 112.205 2.25703 112.313C2.31504 112.421 2.39935 112.512 2.50213 112.579L17.2492 122.243L17.3307 122.29L17.4181 122.325H17.5054H28.9456L29.6326 125.317C29.7079 125.648 29.8936 125.944 30.1591 126.156C30.4247 126.367 30.7543 126.482 31.0939 126.482C31.1977 126.481 31.3012 126.469 31.4025 126.447L31.8042 126.418C32.0906 126.358 32.3533 126.216 32.5602 126.009C32.767 125.802 32.909 125.54 32.9686 125.253C33.0512 125.07 33.0967 124.872 33.1025 124.671L33.1549 122.371H54.5099L54.5623 124.671C54.5659 124.873 54.6136 125.072 54.7021 125.253C54.7596 125.54 54.9008 125.804 55.108 126.012C55.3152 126.219 55.5791 126.36 55.8664 126.418L56.2274 126.493C56.3287 126.516 56.4322 126.528 56.536 126.528C56.8758 126.53 57.206 126.415 57.4718 126.203C57.7375 125.992 57.923 125.695 57.9973 125.364L58.6843 122.371H73.9379H74.0194L74.1126 122.342L74.1882 122.296L88.9645 112.573C89.0679 112.506 89.1531 112.415 89.2121 112.307C89.2711 112.2 89.3021 112.079 89.3021 111.956V93.6164L90.5597 92.7839C90.7138 92.6868 90.8364 92.5472 90.9129 92.3819C90.9893 92.2166 91.0163 92.0327 90.9905 91.8524V91.8524ZM53.6192 78.5783L59.3538 80.843L59.9884 81.0933L59.5285 81.3495H59.4645C59.4075 81.3805 59.3573 81.4225 59.3168 81.4731C59.2763 81.5237 59.2462 81.5818 59.2283 81.6441C59.2104 81.7064 59.2051 81.7716 59.2127 81.836C59.2202 81.9004 59.2405 81.9626 59.2723 82.0191C59.313 82.0981 59.3748 82.1645 59.4509 82.2107C59.5269 82.2569 59.6142 82.2813 59.7032 82.281C59.7515 82.2871 59.8004 82.2871 59.8487 82.281L59.9419 82.2403L61.1877 81.5649L62.8994 82.2403L61.7001 82.8982L60.3319 83.6492L58.725 84.4992C58.6302 84.5528 58.5557 84.6362 58.5131 84.7364C58.4705 84.8367 58.4621 84.9482 58.4893 85.0536C58.5165 85.1591 58.5777 85.2527 58.6635 85.3198C58.7493 85.3869 58.8548 85.4239 58.9638 85.4249C59.0469 85.4256 59.129 85.4056 59.2025 85.3667L60.6463 84.5749L62.0552 83.8064L64.0929 82.6944L66.1306 83.5036L62.6374 85.39L61.1703 86.1876L59.3131 87.2006L53.2175 81.7803L51.5989 80.3016L51.2205 79.9639L51.5233 79.795L52.0414 79.4923C52.2907 79.413 52.5339 79.3157 52.7692 79.2012C53.0903 79.0508 53.3791 78.8392 53.6192 78.5783V78.5783ZM57.5374 91.1654H60.9549L66.5673 96.1665H66.4741H48.6006C48.4694 96.1665 48.3435 96.2186 48.2507 96.3114C48.1579 96.4042 48.1057 96.5301 48.1057 96.6613C48.1057 96.7926 48.1579 96.9185 48.2507 97.0113C48.3435 97.1041 48.4694 97.1562 48.6006 97.1562H66.4741C66.6054 97.1562 66.7312 97.1041 66.8241 97.0113C66.9169 96.9185 66.969 96.7926 66.969 96.6613C66.9778 96.6113 66.9778 96.56 66.969 96.51L69.1813 98.472L71.3006 100.352L72.1855 101.144H52.7983C52.6702 100.865 52.5596 100.603 52.4664 100.352C52.2399 99.7876 52.0665 99.2029 51.9483 98.6059C51.9205 98.4316 51.8312 98.273 51.6967 98.1587C51.5622 98.0445 51.3912 97.9821 51.2147 97.9829H36.8286C36.6539 97.9833 36.485 98.0454 36.3518 98.1584C36.2186 98.2714 36.1297 98.4278 36.1008 98.6001C35.9794 99.1963 35.806 99.7807 35.5826 100.347C35.4895 100.597 35.3789 100.859 35.2508 101.138H18.8852L19.776 100.347L23.4089 97.1155H33.3412C33.4062 97.1155 33.4705 97.1027 33.5306 97.0778C33.5906 97.0529 33.6452 97.0165 33.6911 96.9705C33.7371 96.9246 33.7735 96.87 33.7984 96.81C33.8233 96.7499 33.8361 96.6856 33.8361 96.6206C33.8361 96.5556 33.8233 96.4913 33.7984 96.4312C33.7735 96.3712 33.7371 96.3166 33.6911 96.2707C33.6452 96.2247 33.5906 96.1883 33.5306 96.1634C33.4705 96.1385 33.4062 96.1257 33.3412 96.1257H24.5151L32.497 89.0229H36.1532C36.2223 89.0304 36.2922 89.0233 36.3584 89.002C36.4246 88.9807 36.4855 88.9457 36.5372 88.8993C36.589 88.8529 36.6304 88.7961 36.6587 88.7327C36.687 88.6692 36.7017 88.6005 36.7017 88.5309C36.7017 88.4614 36.687 88.3927 36.6587 88.3292C36.6304 88.2658 36.589 88.209 36.5372 88.1626C36.4855 88.1161 36.4246 88.0812 36.3584 88.0599C36.2922 88.0386 36.2223 88.0315 36.1532 88.039H33.6032L34.8142 86.9619H51.2147C51.3459 86.9619 51.4718 86.9098 51.5646 86.817C51.6574 86.7242 51.7096 86.5983 51.7096 86.467C51.7096 86.3358 51.6574 86.2099 51.5646 86.1171C51.4718 86.0243 51.3459 85.9722 51.2147 85.9722H35.9203L36.0717 85.8441L37.1255 84.9009H48.6879C48.8192 84.9009 48.9451 84.8488 49.0379 84.756C49.1307 84.6632 49.1828 84.5373 49.1828 84.4061C49.1828 84.2748 49.1307 84.1489 49.0379 84.0561C48.9451 83.9633 48.8192 83.9112 48.6879 83.9112H38.2084L39.1806 83.0495H43.7102C43.7751 83.0495 43.8395 83.0367 43.8995 83.0119C43.9596 82.987 44.0141 82.9506 44.0601 82.9046C44.106 82.8586 44.1425 82.8041 44.1673 82.744C44.1922 82.684 44.205 82.6197 44.205 82.5547C44.205 82.4897 44.1922 82.4253 44.1673 82.3653C44.1425 82.3052 44.106 82.2507 44.0601 82.2047C44.0141 82.1588 43.9596 82.1223 43.8995 82.0975C43.8395 82.0726 43.7751 82.0598 43.7102 82.0598H40.2926L41.8005 80.7149H49.2701L52.0589 83.1951L53.8695 84.8078L57.4966 88.039H40.6652C40.5961 88.0315 40.5262 88.0386 40.4601 88.0599C40.3939 88.0812 40.333 88.1161 40.2812 88.1626C40.2295 88.209 40.1881 88.2658 40.1598 88.3292C40.1314 88.3927 40.1168 88.4614 40.1168 88.5309C40.1168 88.6005 40.1314 88.6692 40.1598 88.7327C40.1881 88.7961 40.2295 88.8529 40.2812 88.8993C40.333 88.9457 40.3939 88.9807 40.4601 89.002C40.5262 89.0233 40.5961 89.0304 40.6652 89.0229H58.5853L59.8545 90.1524H57.5257C57.4566 90.1448 57.3867 90.1519 57.3205 90.1732C57.2544 90.1945 57.1934 90.2295 57.1417 90.2759C57.09 90.3223 57.0486 90.3791 57.0202 90.4426C56.9919 90.5061 56.9773 90.5748 56.9773 90.6443C56.9773 90.7138 56.9919 90.7826 57.0202 90.846C57.0486 90.9095 57.09 90.9663 57.1417 91.0127C57.1934 91.0591 57.2544 91.0941 57.3205 91.1154C57.3867 91.1367 57.4566 91.1438 57.5257 91.1363L57.5374 91.1654ZM32.0138 107.467C32.2758 107.263 32.5261 107.065 32.7648 106.856C32.9104 106.733 33.0443 106.611 33.1782 106.489C33.3121 106.367 33.4111 106.268 33.5217 106.157C34.3337 105.359 35.0489 104.468 35.6525 103.502C35.7573 103.339 35.8505 103.182 35.9436 103.019C36.1299 102.699 36.2988 102.384 36.4443 102.082C36.4851 102 36.5258 101.919 36.5608 101.837L36.5957 101.767C36.6947 101.552 36.782 101.342 36.8635 101.144C36.9799 100.859 37.0731 100.597 37.1604 100.352C37.271 100.015 37.3584 99.7179 37.4224 99.4792H50.6267C50.6849 99.7179 50.7722 100.015 50.8887 100.352C50.9702 100.597 51.0691 100.859 51.1856 101.144C51.2613 101.342 51.3544 101.552 51.4534 101.767C51.4656 101.789 51.4753 101.813 51.4825 101.837L51.6048 102.082C51.7503 102.384 51.9133 102.699 52.0996 103.019C52.1928 103.182 52.2917 103.339 52.3907 103.502C52.8886 104.29 53.4577 105.031 54.0907 105.715C54.3295 105.965 54.5798 106.221 54.8476 106.471C55.0805 106.687 55.3308 106.902 55.587 107.112C55.7209 107.217 55.8548 107.327 55.9945 107.426C56.2216 107.601 56.4603 107.776 56.7106 107.939H56.7456L57.2288 108.247L57.4966 108.41L57.875 108.626H30.1566C30.3778 108.503 30.5932 108.375 30.797 108.247L30.8552 108.212C31.1172 108.055 31.3675 107.886 31.6121 107.717H31.647L32.0138 107.467ZM31.6528 105.878L31.6877 104.492H32.0604L32.0312 105.517C31.9265 105.668 31.8042 105.784 31.6528 105.901V105.878ZM32.2699 103.019H34.2028C33.9758 103.362 33.7313 103.694 33.4809 104.009C33.4103 103.807 33.2971 103.622 33.1491 103.467C32.9105 103.233 32.6016 103.084 32.2699 103.042V103.019ZM53.8462 103.019H55.3599C55.0232 103.066 54.7118 103.223 54.475 103.467C54.4157 103.533 54.3612 103.603 54.312 103.677C54.149 103.491 53.9918 103.269 53.8462 103.042V103.019ZM55.5462 104.504H55.913L55.9421 105.511L55.5346 105.127L55.5462 104.504ZM52.4664 77.0354V77.6176V77.6467C52.1001 77.891 51.6914 78.0647 51.2613 78.1591C50.9294 78.2522 50.5393 78.3454 50.0969 78.4269C48.6547 78.6752 47.1937 78.7979 45.7304 78.7937H45.515C45.1423 78.7937 44.7872 78.7937 44.4437 78.7937C43.2724 78.762 42.1049 78.6453 40.9505 78.4444C40.2701 78.3378 39.6041 78.1542 38.9652 77.8971C38.8116 77.8377 38.6712 77.7487 38.5519 77.6351V73.6121C38.8889 73.7488 39.2352 73.8617 39.5882 73.9498L39.9026 74.0313C41.4336 74.3642 42.9936 74.5455 44.5602 74.5727H45.5557H45.6954C47.3649 74.5807 49.0314 74.4326 50.6732 74.1303L51.1856 74.0196C51.3952 73.9731 51.5873 73.9207 51.7678 73.8624C52.0264 73.7884 52.281 73.701 52.5305 73.6005L52.4664 77.0354ZM49.9106 69.7521C49.2236 69.6415 48.4725 69.56 47.6807 69.5076V66.0144H49.3225L49.9106 69.7521ZM41.9752 63.7322H44.6882C44.8646 63.7314 45.0349 63.6676 45.1683 63.5523C45.3018 63.437 45.3896 63.2778 45.416 63.1034C45.419 63.0666 45.419 63.0296 45.416 62.9928V60.0469H46.1961V62.9928C46.1961 63.1889 46.274 63.377 46.4127 63.5156C46.5514 63.6543 46.7394 63.7322 46.9355 63.7322H49.6428V64.5123H46.9414C46.8443 64.5123 46.7481 64.5315 46.6584 64.5686C46.5687 64.6058 46.4872 64.6602 46.4185 64.7289C46.3499 64.7976 46.2954 64.8791 46.2582 64.9688C46.2211 65.0585 46.202 65.1546 46.202 65.2517V71.1727H45.4218V65.2867C45.4218 65.0906 45.3439 64.9025 45.2053 64.7638C45.0666 64.6252 44.8785 64.5473 44.6824 64.5473H41.9752V63.7322ZM40.8108 65.863C40.934 65.9478 41.0804 65.9925 41.23 65.9911H43.9372V69.4843C42.6718 69.5344 41.4122 69.6842 40.1704 69.9326L40.8108 65.863ZM38.7906 71.9121C39.1533 71.7438 39.5316 71.6112 39.92 71.5162C40.2344 71.4347 40.5954 71.3532 41.0029 71.2833C41.9658 71.1194 42.9381 71.0163 43.9139 70.9747V71.9354C43.911 71.9644 43.911 71.9937 43.9139 72.0227C43.9325 72.176 43.9987 72.3197 44.1031 72.4335C44.2075 72.5473 44.3449 72.6256 44.4961 72.6573C44.5484 72.663 44.6011 72.663 44.6533 72.6573H46.9414C47.1222 72.6571 47.2967 72.5907 47.4319 72.4705C47.5671 72.3504 47.6536 72.1848 47.6749 72.0052C47.6778 71.9762 47.6778 71.9469 47.6749 71.9179V70.9922C48.4399 71.0435 49.2017 71.1349 49.9571 71.2658L50.1493 71.3008C50.5685 71.3823 50.9352 71.4696 51.2496 71.5569C51.6388 71.6499 52.0117 71.801 52.3558 72.0052V72.0052C52.062 72.1831 51.7445 72.3184 51.4126 72.4069C51.1215 72.4943 50.7722 72.5874 50.3647 72.6689L49.9571 72.7446C48.5142 72.985 47.0534 73.1018 45.5906 73.0939H45.48H44.5136C43.3428 73.0622 42.1756 72.9494 41.0204 72.7563C40.6043 72.6877 40.1922 72.5964 39.7861 72.4826C39.4352 72.3919 39.0939 72.2671 38.7673 72.11L38.6217 72.0169C38.6757 71.9784 38.7321 71.9434 38.7906 71.9121V71.9121ZM25.6096 83.2184L27.8278 84.4294L29.26 85.2095L30.762 86.0304C30.8355 86.0693 30.9176 86.0893 31.0007 86.0886C31.1097 86.0876 31.2152 86.0506 31.301 85.9835C31.3868 85.9164 31.448 85.8228 31.4752 85.7173C31.5024 85.6119 31.494 85.5004 31.4514 85.4001C31.4088 85.2999 31.3343 85.2165 31.2394 85.1629L29.586 84.2605L28.1829 83.4978L26.8031 82.7526L28.5148 82.0773L28.6952 82.1762L30.0227 82.8982H30.0518C30.1163 82.9325 30.1883 82.9504 30.2614 82.9506C30.3503 82.9508 30.4376 82.9264 30.5137 82.8802C30.5897 82.834 30.6514 82.7677 30.6922 82.6886C30.724 82.6321 30.7443 82.5699 30.7518 82.5055C30.7594 82.4411 30.7541 82.3759 30.7362 82.3136C30.7183 82.2513 30.6882 82.1932 30.6477 82.1426C30.6072 82.0921 30.557 82.0501 30.5001 82.0191L30.3778 81.955L29.7083 81.5882L30.6223 81.2273L37.3525 78.5666L37.469 78.6889C37.825 78.9976 38.2385 79.2331 38.6858 79.3817L38.9594 79.4807L39.7803 79.9522L38.4005 81.1807L36.683 82.706L30.797 87.9458L28.7069 86.7814L27.2165 85.9664L23.5719 83.9811L25.6096 83.2184ZM16.9115 108.008V120.235L3.60248 111.502V94.8449L15.8286 102.891C15.9807 102.991 16.159 103.044 16.341 103.042H16.9232L16.9115 108.008ZM17.2841 99.9915L16.2362 100.929L2.93878 92.161L4.46414 91.5788L6.72888 90.6822C6.73424 90.7646 6.75991 90.8444 6.80359 90.9145C6.84727 90.9846 6.9076 91.0428 6.97922 91.0839L19.1064 97.6918C19.1795 97.7326 19.2615 97.7546 19.3451 97.7559C19.4341 97.7561 19.5214 97.7318 19.5974 97.6855C19.6734 97.6393 19.7352 97.573 19.776 97.4939C19.8075 97.4371 19.8275 97.3745 19.8346 97.3099C19.8418 97.2453 19.8359 97.1799 19.8175 97.1176C19.7991 97.0552 19.7684 96.9972 19.7273 96.9468C19.6862 96.8965 19.6354 96.8549 19.578 96.8244L7.64876 90.3212L16.6728 86.7581L19.1414 85.7859L19.2927 85.8674L26.3199 89.6982L26.7565 89.9369C26.8279 89.9759 26.9081 89.9959 26.9894 89.9952C27.0783 89.9945 27.1654 89.9705 27.242 89.9255C27.3187 89.8806 27.3821 89.8163 27.4261 89.739C27.4883 89.6239 27.5024 89.4889 27.4653 89.3634C27.4282 89.2379 27.3429 89.1322 27.2281 89.0695L26.25 88.5397L20.3349 85.3143L22.3726 84.5109L26.8613 86.9561L28.3809 87.7828L30.0168 88.6736L22.5239 95.3281L22.4482 95.2757L13.104 90.1815C12.9889 90.1193 12.8538 90.1052 12.7283 90.1422C12.6029 90.1793 12.4972 90.2646 12.4344 90.3794C12.4028 90.4362 12.3829 90.4988 12.3758 90.5634C12.3686 90.628 12.3744 90.6934 12.3929 90.7557C12.4113 90.8181 12.442 90.8761 12.4831 90.9265C12.5242 90.9768 12.575 91.0184 12.6324 91.0489L21.7438 96.0209L17.2841 99.9915ZM18.4136 120.887V103.042H31.4607C31.1212 103.103 30.8132 103.279 30.5891 103.541C30.3651 103.804 30.239 104.135 30.2322 104.48L30.1682 106.99C29.8131 107.211 29.4405 107.42 29.0562 107.613L28.474 105.004C28.3939 104.62 28.1659 104.282 27.8392 104.064C27.5124 103.847 27.1131 103.766 26.7274 103.84L26.3664 103.916C25.982 103.996 25.6444 104.224 25.4266 104.55C25.2087 104.877 25.1281 105.276 25.2021 105.662V105.662L25.7843 108.253L25.9123 108.835V108.864V108.893V108.952C25.9123 108.952 25.9123 108.952 25.9123 108.981C25.9149 108.992 25.9149 109.004 25.9123 109.016C25.9123 109.016 25.9123 109.045 25.9123 109.056C25.9123 109.056 25.9123 109.056 25.9123 109.097V109.126C25.9095 109.14 25.9095 109.154 25.9123 109.167V113.4C25.9123 113.596 25.9902 113.784 26.1289 113.922C26.2676 114.061 26.4556 114.139 26.6517 114.139H27.1466L28.6428 120.642L18.4136 120.887ZM27.6764 108.224L27.4319 108.311L27.3038 108.358V108.311L26.6343 105.4L26.9952 105.324L27.6764 108.224ZM31.5131 124.979L31.1463 125.055L30.5641 122.488V122.389L30.2264 120.904L29.9179 119.565L28.7535 114.401H29.161L29.9819 117.97L30.6514 120.881L30.9949 122.365L31.321 123.792L31.5189 124.642L31.5888 124.962C31.5888 124.962 31.4956 124.979 31.4898 124.979H31.5131ZM31.7518 119.361L31.6703 118.994L31.3966 117.801L31.4782 114.383H31.8682L31.7518 119.361ZM33.1956 120.887L33.3528 114.383H54.312L54.4692 120.887H33.1956ZM55.0281 112.905H27.1058V110.168H60.9432V112.905H55.0048H55.0281ZM60.0292 108.067L60.658 105.33L61.0189 105.406L60.3727 108.224L60.0292 108.067ZM55.8024 114.383H56.1983L56.2798 117.801L55.9189 119.361L55.8024 114.383ZM57.7994 119.548L57.4908 120.887L57.1531 122.371V122.47L56.5709 125.038L56.21 124.962L56.2856 124.642L56.4778 123.792L56.8038 122.365L57.1473 120.881L57.8226 117.97L58.6377 114.401H59.0453L57.7994 119.548ZM73.0646 108.311V120.887H58.987L60.4833 114.383H61.6826C61.8787 114.383 62.0668 114.306 62.2054 114.167C62.3441 114.028 62.422 113.84 62.422 113.644V109.342C62.4252 109.328 62.4252 109.314 62.422 109.301C62.422 109.301 62.422 109.272 62.422 109.26C62.4246 109.249 62.4246 109.237 62.422 109.225V109.196C62.4252 109.177 62.4252 109.157 62.422 109.138C62.422 109.138 62.422 109.138 62.422 109.109V109.08C62.422 109.08 62.422 109.08 62.3929 109.051H62.358H62.323H62.2881H62.2473H62.1542L62.2357 108.672L62.8179 106.081C62.8919 105.696 62.8112 105.296 62.5934 104.97C62.3755 104.643 62.038 104.415 61.6535 104.335L61.2926 104.259C61.1008 104.217 60.9025 104.214 60.7096 104.25C60.5166 104.286 60.3328 104.361 60.1689 104.469C59.8396 104.682 59.6075 105.017 59.5227 105.4L58.9405 107.81C58.5387 107.595 58.1487 107.356 57.7761 107.106L57.7237 104.876C57.7131 104.482 57.5479 104.108 57.2637 103.834C57.0511 103.627 56.7814 103.49 56.4894 103.438H73.3732L73.0646 108.311ZM87.8525 99.4384V111.502L74.5492 120.235V103.042H74.8112L74.9335 103.013L75.0499 102.972L75.1605 102.914L87.8233 94.5654L87.8525 99.4384ZM74.7588 100.929L73.9088 100.166L68.4187 95.2757L77.3554 90.4027C77.4128 90.3722 77.4636 90.3306 77.5047 90.2802C77.5458 90.2299 77.5765 90.1718 77.5949 90.1095C77.6133 90.0472 77.6192 89.9818 77.612 89.9172C77.6049 89.8525 77.585 89.79 77.5534 89.7332C77.4906 89.6184 77.3849 89.5331 77.2595 89.496C77.134 89.4589 76.9989 89.473 76.8838 89.5352L67.6327 94.5829L60.1456 87.9167L61.5487 87.154L63.045 86.339L67.3532 84.0102L69.3851 84.8136L63.6563 87.94L62.7597 88.4232C62.6449 88.486 62.5596 88.5917 62.5225 88.7171C62.4854 88.8426 62.4995 88.9777 62.5618 89.0928C62.6057 89.17 62.6691 89.2343 62.7458 89.2793C62.8224 89.3243 62.9095 89.3483 62.9984 89.3489C63.0797 89.3497 63.1599 89.3296 63.2313 89.2907L64.0056 88.8715L70.5379 85.3085H70.5844L73.1985 86.339L82.077 89.8322L70.4331 96.1898C70.3756 96.2203 70.3249 96.2619 70.2838 96.3123C70.2426 96.3626 70.212 96.4206 70.1936 96.483C70.1751 96.5453 70.1693 96.6107 70.1765 96.6753C70.1836 96.7399 70.2035 96.8025 70.2351 96.8593C70.2759 96.9384 70.3376 97.0047 70.4137 97.0509C70.4897 97.0972 70.577 97.1215 70.6659 97.1213C70.7496 97.12 70.8316 97.098 70.9046 97.0572L83.0318 90.4493C83.1069 90.4062 83.1692 90.3439 83.2123 90.2688L86.8395 91.701L88.0795 92.1901L74.7588 100.929Z" fill="url(#paint0_linear_118_121)"></path><path d="M79.0904 110.034C79.2865 110.034 79.4746 109.957 79.6132 109.818C79.7519 109.679 79.8298 109.491 79.8298 109.295V102.716C79.8298 102.52 79.7519 102.332 79.6132 102.193C79.4746 102.055 79.2865 101.977 79.0904 101.977C78.8943 101.977 78.7062 102.055 78.5676 102.193C78.4289 102.332 78.351 102.52 78.351 102.716V109.295C78.351 109.491 78.4289 109.679 78.5676 109.818C78.7062 109.957 78.8943 110.034 79.0904 110.034V110.034Z" fill="url(#paint1_linear_118_121)"></path><path d="M11.8115 101.965C11.6139 101.965 11.4243 102.044 11.2846 102.183C11.1448 102.323 11.0663 102.513 11.0663 102.71V109.289C11.0827 109.475 11.1681 109.647 11.3054 109.773C11.4428 109.899 11.6223 109.969 11.8086 109.969C11.9948 109.969 12.1743 109.899 12.3117 109.773C12.4491 109.647 12.5344 109.475 12.5509 109.289V102.71C12.5517 102.613 12.5331 102.516 12.4963 102.426C12.4595 102.335 12.4051 102.253 12.3364 102.184C12.2677 102.115 12.1859 102.06 12.0958 102.022C12.0057 101.985 11.9091 101.965 11.8115 101.965V101.965Z" fill="url(#paint2_linear_118_121)"></path><path d="M7.39844 99.0542C7.20234 99.0542 7.01429 99.1321 6.87562 99.2708C6.73696 99.4094 6.65906 99.5975 6.65906 99.7936V106.378C6.65906 106.574 6.73696 106.762 6.87562 106.901C7.01429 107.04 7.20234 107.118 7.39844 107.118C7.59454 107.118 7.78262 107.04 7.92128 106.901C8.05994 106.762 8.13785 106.574 8.13785 106.378V99.8169C8.14097 99.7178 8.12414 99.6192 8.08838 99.5268C8.05263 99.4344 7.99866 99.3501 7.92969 99.2789C7.86071 99.2078 7.77816 99.1512 7.6869 99.1126C7.59564 99.074 7.49753 99.0542 7.39844 99.0542V99.0542Z" fill="url(#paint3_linear_118_121)"></path><path d="M46.2427 91.1654H51.6746C51.7437 91.1729 51.8136 91.1658 51.8798 91.1445C51.9459 91.1232 52.0069 91.0883 52.0586 91.0418C52.1104 90.9954 52.1517 90.9386 52.1801 90.8752C52.2084 90.8117 52.2231 90.743 52.2231 90.6735C52.2231 90.6039 52.2084 90.5352 52.1801 90.4717C52.1517 90.4083 52.1104 90.3515 52.0586 90.3051C52.0069 90.2587 51.9459 90.2237 51.8798 90.2024C51.8136 90.1811 51.7437 90.174 51.6746 90.1815H46.2427C46.1736 90.174 46.1037 90.1811 46.0375 90.2024C45.9713 90.2237 45.9104 90.2587 45.8587 90.3051C45.8069 90.3515 45.7655 90.4083 45.7372 90.4717C45.7089 90.5352 45.6942 90.6039 45.6942 90.6735C45.6942 90.743 45.7089 90.8117 45.7372 90.8752C45.7655 90.9386 45.8069 90.9954 45.8587 91.0418C45.9104 91.0883 45.9713 91.1232 46.0375 91.1445C46.1037 91.1658 46.1736 91.1729 46.2427 91.1654V91.1654Z" fill="url(#paint4_linear_118_121)"></path><path d="M56.6466 92.0329H44.3913C44.26 92.0329 44.1342 92.085 44.0414 92.1778C43.9486 92.2706 43.8964 92.3965 43.8964 92.5278C43.8964 92.659 43.9486 92.7849 44.0414 92.8777C44.1342 92.9705 44.26 93.0226 44.3913 93.0226H56.6466C56.7778 93.0226 56.9037 92.9705 56.9965 92.8777C57.0893 92.7849 57.1414 92.659 57.1414 92.5278C57.1414 92.3965 57.0893 92.2706 56.9965 92.1778C56.9037 92.085 56.7778 92.0329 56.6466 92.0329Z" fill="url(#paint5_linear_118_121)"></path><path d="M40.7817 94.5887C40.7817 94.72 40.8338 94.8459 40.9266 94.9387C41.0194 95.0315 41.1453 95.0836 41.2765 95.0836H59.1675C59.2988 95.0836 59.4246 95.0315 59.5174 94.9387C59.6102 94.8459 59.6624 94.72 59.6624 94.5887C59.6624 94.4575 59.6102 94.3316 59.5174 94.2388C59.4246 94.146 59.2988 94.0939 59.1675 94.0939H41.294C41.2276 94.0915 41.1613 94.1026 41.0992 94.1264C41.0372 94.1502 40.9806 94.1863 40.9327 94.2325C40.8849 94.2787 40.8469 94.334 40.8209 94.3952C40.795 94.4565 40.7816 94.5223 40.7817 94.5887V94.5887Z" fill="url(#paint6_linear_118_121)"></path><path d="M44.0944 96.1432H39.955C39.8237 96.1432 39.6978 96.1953 39.605 96.2881C39.5122 96.3809 39.4601 96.5068 39.4601 96.6381C39.4601 96.7693 39.5122 96.8952 39.605 96.988C39.6978 97.0808 39.8237 97.1329 39.955 97.1329H44.106C44.2373 97.1329 44.3632 97.0808 44.456 96.988C44.5488 96.8952 44.6009 96.7693 44.6009 96.6381C44.6009 96.5068 44.5488 96.3809 44.456 96.2881C44.3632 96.1953 44.2373 96.1432 44.106 96.1432H44.0944Z" fill="url(#paint7_linear_118_121)"></path><path d="M67.3474 90.065C67.4306 90.0658 67.5126 90.0458 67.5861 90.0068L71.2714 87.9924C71.3331 87.9642 71.3884 87.9236 71.4338 87.8731C71.4791 87.8226 71.5136 87.7634 71.5351 87.699C71.5566 87.6346 71.5646 87.5665 71.5587 87.4989C71.5527 87.4313 71.5329 87.3656 71.5005 87.306C71.4681 87.2464 71.4237 87.194 71.3702 87.1523C71.3167 87.1105 71.2552 87.0802 71.1895 87.0632C71.1238 87.0462 71.0553 87.043 70.9883 87.0536C70.9212 87.0642 70.8571 87.0885 70.7998 87.1249L67.1146 89.1568C66.9998 89.2196 66.9145 89.3253 66.8774 89.4507C66.8403 89.5762 66.8544 89.7112 66.9166 89.8263C66.9609 89.9007 67.0241 89.962 67.0998 90.0039C67.1755 90.0458 67.2609 90.0669 67.3474 90.065V90.065Z" fill="url(#paint8_linear_118_121)"></path><path d="M74.6889 87.7363L74.1999 88.0041L72.5173 88.924L66.3751 92.2716C66.2603 92.3344 66.1751 92.44 66.138 92.5655C66.1009 92.691 66.115 92.826 66.1772 92.9411C66.2192 93.0187 66.2815 93.0835 66.3573 93.1286C66.4332 93.1737 66.5198 93.1974 66.608 93.1973C66.6912 93.198 66.7732 93.178 66.8467 93.1391L73.053 89.739L74.6366 88.8716L75.1663 88.5863C75.2233 88.5553 75.2734 88.5133 75.314 88.4627C75.3545 88.4121 75.3846 88.354 75.4025 88.2917C75.4203 88.2294 75.4257 88.1642 75.4181 88.0998C75.4106 88.0354 75.3903 87.9732 75.3585 87.9167C75.2928 87.8049 75.1858 87.7234 75.0606 87.6896C74.9354 87.6559 74.8019 87.6726 74.6889 87.7363Z" fill="url(#paint9_linear_118_121)"></path><path d="M18.6931 88.6387L22.3784 90.6472C22.4514 90.688 22.5334 90.71 22.6171 90.7113C22.7255 90.709 22.8302 90.6712 22.915 90.6036C22.9998 90.536 23.0601 90.4424 23.0866 90.3373C23.113 90.2321 23.1042 90.1211 23.0615 90.0215C23.0187 89.9218 22.9444 89.8389 22.8499 89.7856L19.1646 87.7712C19.1074 87.7347 19.0433 87.7104 18.9762 87.6998C18.9092 87.6892 18.8407 87.6925 18.775 87.7095C18.7093 87.7264 18.6478 87.7568 18.5943 87.7985C18.5408 87.8403 18.4964 87.8926 18.464 87.9522C18.4316 88.0119 18.4118 88.0775 18.4058 88.1451C18.3999 88.2127 18.4079 88.2808 18.4294 88.3452C18.4508 88.4096 18.4853 88.4689 18.5307 88.5194C18.5761 88.5698 18.6313 88.6104 18.6931 88.6387V88.6387Z" fill="url(#paint10_linear_118_121)"></path><path d="M14.7982 89.2499L23.1178 93.8144C23.1913 93.8533 23.2734 93.8733 23.3565 93.8726C23.465 93.8703 23.5696 93.8325 23.6545 93.7649C23.7393 93.6973 23.7996 93.6038 23.8261 93.4986C23.8525 93.3934 23.8437 93.2824 23.8009 93.1828C23.7582 93.0831 23.6839 93.0002 23.5894 92.9469L17.2842 89.5119L15.5842 88.5804L15.2756 88.4116C15.1605 88.3494 15.0255 88.3353 14.9 88.3724C14.7745 88.4095 14.6689 88.4947 14.6061 88.6095C14.5508 88.7207 14.5399 88.8488 14.5756 88.9677C14.6113 89.0866 14.6909 89.1875 14.7982 89.2499V89.2499Z" fill="url(#paint11_linear_118_121)"></path><path d="M33.2422 19.6656L33.8244 19.3162L31.6586 15.4039C31.632 15.3526 31.5949 15.3074 31.5498 15.2713C31.5047 15.2352 31.4525 15.209 31.3966 15.1943C31.3405 15.1778 31.2816 15.1729 31.2236 15.1799C31.1655 15.1869 31.1095 15.2057 31.0589 15.235V15.235C30.9574 15.2942 30.8824 15.3901 30.8493 15.5028C30.8344 15.5607 30.8314 15.6209 30.8404 15.68C30.8494 15.739 30.8703 15.7956 30.9017 15.8463L33.2422 19.6656Z" fill="url(#paint12_linear_118_121)"></path><path d="M29.9819 22.0118L30.5117 21.5694L25.464 15.3282C25.4182 15.2701 25.3598 15.2232 25.2933 15.1909C25.2267 15.1586 25.1537 15.1419 25.0798 15.1419C24.9852 15.1431 24.8928 15.1711 24.8135 15.2226C24.7342 15.2741 24.671 15.3471 24.6314 15.433C24.5939 15.5191 24.5817 15.614 24.5961 15.7068C24.6105 15.7996 24.6511 15.8864 24.713 15.957L29.9819 22.0118Z" fill="url(#paint13_linear_118_121)"></path><path d="M16.4341 16.2073L27.1873 24.8937L27.6298 24.3697L17.2026 15.2874C17.095 15.1925 16.9561 15.1407 16.8126 15.1419C16.683 15.1289 16.5529 15.1597 16.4429 15.2294C16.3329 15.2991 16.2495 15.4036 16.2059 15.5263C16.1623 15.649 16.1611 15.7828 16.2025 15.9062C16.2439 16.0296 16.3254 16.1357 16.4341 16.2073Z" fill="url(#paint14_linear_118_121)"></path><path d="M74.7064 16.085L63.959 24.7773L63.5165 24.2475L73.9379 15.171C74.0462 15.0726 74.1875 15.0185 74.3338 15.0196C74.4615 15.0134 74.5877 15.0493 74.6929 15.1219C74.7981 15.1945 74.8765 15.2997 74.916 15.4213C74.9572 15.5398 74.9591 15.6684 74.9213 15.788C74.8835 15.9075 74.8082 16.0117 74.7064 16.085V16.085Z" fill="url(#paint15_linear_118_121)"></path><path d="M10.7752 20.3875L24.9343 28.218L25.2778 27.6359L11.4273 19.2929C11.3302 19.2341 11.2192 19.2022 11.1057 19.2003C10.9922 19.1985 10.8802 19.2269 10.7813 19.2826C10.6824 19.3383 10.6 19.4193 10.5427 19.5172C10.4854 19.6152 10.4551 19.7267 10.455 19.8402C10.4557 19.9515 10.4857 20.0606 10.5419 20.1567C10.5981 20.2528 10.6786 20.3323 10.7752 20.3875V20.3875Z" fill="url(#paint16_linear_118_121)"></path><path d="M79.7017 20.3875L65.5717 28.2181L65.2282 27.6359L79.0613 19.293C79.1341 19.2443 79.2161 19.2111 79.3022 19.1954C79.3884 19.1797 79.4768 19.1818 79.5621 19.2016C79.6474 19.2215 79.7278 19.2586 79.7981 19.3107C79.8685 19.3628 79.9275 19.4288 79.9713 19.5045C80.0152 19.5803 80.0431 19.6643 80.0532 19.7513C80.0633 19.8383 80.0556 19.9264 80.0303 20.0102C80.005 20.0941 79.9628 20.1719 79.9063 20.2387C79.8498 20.3056 79.7801 20.3602 79.7017 20.3991V20.3875Z" fill="url(#paint17_linear_118_121)"></path><path d="M10.8451 27.6126L23.2867 31.8859L23.5254 31.2338L11.241 26.5122C11.1523 26.4779 11.0567 26.4658 10.9623 26.4769C10.8679 26.4881 10.7777 26.5222 10.6995 26.5763C10.6216 26.6303 10.558 26.7026 10.5144 26.7868C10.4708 26.871 10.4484 26.9646 10.4492 27.0595C10.4489 27.1815 10.4869 27.3006 10.5579 27.3998C10.629 27.4991 10.7294 27.5735 10.8451 27.6126Z" fill="url(#paint18_linear_118_121)"></path><path d="M10.9149 33.9877L22.3086 35.7808L22.4308 35.0997L11.1129 32.8931C11.0315 32.8754 10.9472 32.8767 10.8664 32.8969C10.7856 32.9171 10.7106 32.9557 10.6471 33.0096C10.5847 33.0613 10.5346 33.1263 10.5003 33.1998C10.4661 33.2733 10.4486 33.3535 10.4492 33.4346C10.4531 33.5658 10.5012 33.6918 10.5858 33.7922C10.6703 33.8926 10.7863 33.9615 10.9149 33.9877Z" fill="url(#paint19_linear_118_121)"></path><path d="M10.9964 39.9901L22.0116 39.7863V39.0877L10.9964 38.8898C10.924 38.8876 10.852 38.9004 10.7849 38.9275C10.7178 38.9546 10.6569 38.9952 10.6063 39.047C10.5538 39.0973 10.5123 39.1579 10.4842 39.225C10.4562 39.2921 10.4422 39.3643 10.4433 39.437C10.4468 39.5829 10.505 39.7221 10.6063 39.8271C10.7113 39.9284 10.8505 39.9866 10.9964 39.9901V39.9901Z" fill="url(#paint20_linear_118_121)"></path><path d="M10.6471 45.8762C10.7479 45.9571 10.8729 46.0022 11.0022 46.0042H11.1128L22.4308 43.7919L22.3085 43.1107L10.9149 44.9097C10.8148 44.9349 10.7233 44.9862 10.6496 45.0584C10.5759 45.1306 10.5226 45.2211 10.4954 45.3206C10.4682 45.4201 10.4678 45.525 10.4945 45.6247C10.5211 45.7244 10.5738 45.8152 10.6471 45.8878V45.8762Z" fill="url(#paint21_linear_118_121)"></path><path d="M10.6995 52.3095C10.7984 52.3735 10.9136 52.4078 11.0314 52.4084C11.1027 52.4087 11.1736 52.3968 11.241 52.3735L23.5254 47.646L23.2867 46.994L10.8451 51.2731C10.7294 51.3122 10.629 51.3866 10.5579 51.4859C10.4869 51.5851 10.4489 51.7042 10.4492 51.8262C10.4484 51.9211 10.4708 52.0147 10.5144 52.0989C10.558 52.1831 10.6216 52.2554 10.6995 52.3095V52.3095Z" fill="url(#paint22_linear_118_121)"></path><path d="M10.7752 59.6102C10.8701 59.6667 10.9791 59.6949 11.0896 59.6917C11.2058 59.6912 11.3199 59.6611 11.4214 59.6044L25.2777 51.2615L24.9342 50.6793L10.7752 58.5099C10.6758 58.5655 10.593 58.6466 10.5354 58.7448C10.4778 58.8431 10.4474 58.9549 10.4474 59.0688C10.4474 59.1827 10.4778 59.2945 10.5354 59.3927C10.593 59.491 10.6758 59.5721 10.7752 59.6277V59.6102Z" fill="url(#paint23_linear_118_121)"></path><path d="M10.8741 68.5354C10.9718 68.5766 11.0766 68.5983 11.1827 68.5994C11.3585 68.5994 11.5282 68.5352 11.6601 68.4189L27.6298 54.516L27.1873 53.9862L10.7169 67.3011C10.6206 67.3798 10.5458 67.4818 10.4998 67.5974C10.4537 67.7129 10.4377 67.8384 10.4535 67.9618C10.4692 68.0852 10.516 68.2026 10.5896 68.303C10.6632 68.4033 10.7611 68.4833 10.8741 68.5354V68.5354Z" fill="url(#paint24_linear_118_121)"></path><path d="M11.0371 80.4704C11.1327 80.5029 11.2331 80.5186 11.3341 80.517C11.465 80.5184 11.5945 80.4897 11.7126 80.4332C11.8307 80.3766 11.9342 80.2938 12.0152 80.191L30.5117 57.3105L29.9819 56.8681L10.6645 79.0557C10.5252 79.2176 10.4488 79.4242 10.4491 79.6379C10.4476 79.8207 10.5036 79.9995 10.6091 80.1488C10.7146 80.2982 10.8643 80.4107 11.0371 80.4704V80.4704Z" fill="url(#paint25_linear_118_121)"></path><path d="M60.134 56.8681L59.6042 57.3105L78.1007 80.191C78.1817 80.2938 78.2852 80.3766 78.4033 80.4332C78.5214 80.4897 78.6509 80.5184 78.7818 80.517C78.8982 80.5193 79.0138 80.4983 79.1219 80.455C79.2299 80.4117 79.3282 80.3471 79.4107 80.2651C79.4933 80.1831 79.5585 80.0853 79.6025 79.9775C79.6465 79.8698 79.6684 79.7542 79.6668 79.6379C79.6671 79.4242 79.5906 79.2176 79.4514 79.0557L60.134 56.8681Z" fill="url(#paint26_linear_118_121)"></path><path d="M79.3931 67.3011L62.9286 53.9862L62.4861 54.516L78.4558 68.4189C78.5865 68.5371 78.757 68.6016 78.9332 68.5994C79.0374 68.5983 79.1402 68.5766 79.2359 68.5354C79.365 68.4777 79.4745 68.3836 79.551 68.2647C79.6275 68.1458 79.6678 68.0072 79.6668 67.8658C79.667 67.7571 79.6425 67.6497 79.5951 67.5519C79.5477 67.454 79.4786 67.3683 79.3931 67.3011Z" fill="url(#paint27_linear_118_121)"></path><path d="M79.6668 59.0338C79.6658 58.9249 79.6362 58.8181 79.581 58.7241C79.5259 58.6301 79.447 58.5522 79.3523 58.4982L65.1816 50.6618L64.8381 51.244L78.741 59.6102C78.8354 59.6687 78.9444 59.699 79.0554 59.6976C79.1368 59.7017 79.2182 59.6888 79.2942 59.6595C79.3703 59.6303 79.4393 59.5854 79.497 59.5278C79.5546 59.4702 79.5995 59.4011 79.6287 59.325C79.658 59.249 79.6709 59.1676 79.6668 59.0863V59.0338Z" fill="url(#paint28_linear_118_121)"></path><path d="M79.2709 51.2731L66.8235 46.994L66.5906 47.646L78.8692 52.3735C78.9367 52.3964 79.0075 52.4082 79.0787 52.4084C79.1965 52.4078 79.3117 52.3735 79.4106 52.3095C79.5011 52.2489 79.5729 52.1642 79.6177 52.0649C79.6624 51.9656 79.6784 51.8557 79.6639 51.7477C79.6493 51.6398 79.6048 51.5381 79.5353 51.4542C79.4659 51.3703 79.3742 51.3076 79.2709 51.2731V51.2731Z" fill="url(#paint29_linear_118_121)"></path><path d="M79.1951 44.9097L67.8073 43.1107L67.6851 43.7919L79.003 46.0042H79.1136C79.2414 46.0037 79.365 45.9583 79.4629 45.8762C79.5362 45.8035 79.5889 45.7127 79.6155 45.6131C79.6422 45.5134 79.6419 45.4084 79.6146 45.3089C79.5874 45.2094 79.5341 45.1189 79.4604 45.0467C79.3867 44.9745 79.2952 44.9232 79.1951 44.8981V44.9097Z" fill="url(#paint30_linear_118_121)"></path><path d="M79.5038 39.0528C79.4516 39.0014 79.3898 38.9611 79.3218 38.9341C79.2538 38.9071 79.181 38.894 79.1079 38.8956L68.0985 39.0935V39.7863L79.1079 39.9901C79.2509 39.9867 79.3877 39.9308 79.4921 39.8329C79.5934 39.7279 79.6516 39.5887 79.6551 39.4428C79.6577 39.371 79.6456 39.2993 79.6196 39.2322C79.5936 39.1652 79.5542 39.1041 79.5038 39.0528V39.0528Z" fill="url(#paint31_linear_118_121)"></path><path d="M79.4629 33.0096C79.4006 32.9558 79.3266 32.9172 79.2467 32.897C79.1669 32.8768 79.0834 32.8755 79.003 32.8931L67.6851 35.0997L67.8073 35.7809L79.1951 33.9877C79.2952 33.9625 79.3867 33.9112 79.4604 33.839C79.5341 33.7668 79.5874 33.6763 79.6146 33.5768C79.6419 33.4773 79.6422 33.3724 79.6155 33.2727C79.5889 33.173 79.5362 33.0822 79.4629 33.0096V33.0096Z" fill="url(#paint32_linear_118_121)"></path><path d="M79.4106 26.5763C79.3324 26.5222 79.2422 26.4881 79.1478 26.4769C79.0534 26.4658 78.9578 26.4779 78.8692 26.5122L66.5906 31.2338L66.8235 31.8859L79.2709 27.6126C79.3914 27.5721 79.4953 27.4932 79.5668 27.3881C79.6383 27.283 79.6734 27.1573 79.6668 27.0304C79.6623 26.94 79.6368 26.8519 79.5924 26.773C79.5479 26.6942 79.4857 26.6268 79.4106 26.5763V26.5763Z" fill="url(#paint33_linear_118_121)"></path><path d="M59.5344 15.8755C59.5974 15.7684 59.6162 15.641 59.5867 15.5203C59.5713 15.4602 59.5437 15.4038 59.5057 15.3548C59.4676 15.3057 59.4199 15.2649 59.3655 15.235C59.2592 15.18 59.1357 15.1681 59.0208 15.2017C58.9059 15.2353 58.8083 15.3119 58.7484 15.4155L56.5942 19.3163L57.1764 19.6656L59.5344 15.8755Z" fill="url(#paint34_linear_118_121)"></path><path d="M65.2224 15.468C65.1831 15.3823 65.1199 15.3097 65.0404 15.2591C64.9608 15.2085 64.8684 15.182 64.7741 15.1827C64.7015 15.1824 64.6298 15.1985 64.5643 15.2298C64.4988 15.261 64.4411 15.3066 64.3957 15.3632L60.1282 20.6437L60.6347 21.1793L65.1467 15.9978C65.2095 15.9264 65.25 15.8382 65.2635 15.7441C65.2769 15.65 65.2626 15.5541 65.2224 15.468V15.468Z" fill="url(#paint35_linear_118_121)"></path><path d="M37.1778 19.4909L43.4481 23.1646C43.822 23.391 44.2511 23.5099 44.6882 23.5081C45.1655 23.5045 45.632 23.3652 46.0331 23.1064L52.5246 18.8563C52.836 18.6546 53.0975 18.3846 53.2892 18.0669C53.4808 17.7492 53.5976 17.392 53.6308 17.0224L53.8404 14.7285L53.8869 14.1463L53.9743 13.1973V12.8888C53.9747 12.5917 53.8705 12.304 53.68 12.0762C53.4894 11.8483 53.2246 11.6949 52.9321 11.6429H52.8506C52.7464 11.6421 52.6425 11.6558 52.5421 11.6836C52.4781 11.6937 52.4156 11.7113 52.3557 11.736L50.3472 12.6151V12.7258V12.621L49.9978 12.7723C49.924 12.8067 49.8424 12.8213 49.7612 12.8147C49.68 12.8082 49.6019 12.7807 49.5344 12.7349C49.467 12.6892 49.4126 12.6268 49.3765 12.5538C49.3403 12.4807 49.3238 12.3996 49.3283 12.3182L49.3633 11.5788L49.5379 7.14248C49.5554 6.70713 49.4567 6.27496 49.2521 5.89029C49.0475 5.50562 48.7443 5.18227 48.3735 4.95341L45.381 3.13113L44.892 2.82839L40.5371 0.208496C40.2786 0.0487907 39.975 -0.0222649 39.6724 0.00610168C39.3698 0.0344682 39.0848 0.16071 38.8604 0.36569C38.8129 0.407371 38.7682 0.4521 38.7265 0.499595C38.5506 0.705616 38.4378 0.957974 38.4017 1.22644C38.3655 1.49491 38.4076 1.76811 38.5227 2.01331L39.1922 3.4397L40.9388 7.21235C40.9961 7.33334 41.0234 7.46638 41.0183 7.60016C41.0133 7.73394 40.976 7.86453 40.9097 7.98085L40.2344 9.14525L39.8268 9.87299L38.8604 11.5788L37.9463 13.1973L36.747 15.3107L36.6771 15.433L36.2754 16.1375C35.9523 16.7023 35.8658 17.372 36.0349 18.0003C36.204 18.6287 36.6149 19.1646 37.1778 19.4909V19.4909ZM45.1423 21.7557C45.009 21.8369 44.8559 21.8799 44.6998 21.8799C44.5437 21.8799 44.3907 21.8369 44.2574 21.7557L43.3957 21.2492L42.9008 18.3789L43.9197 16.382L45.7769 21.3423L45.1423 21.7557ZM37.6843 16.9642L40.0131 12.8888C40.0393 12.8581 40.0591 12.8225 40.0714 12.784L40.3974 12.2018L40.4731 12.0737L40.572 11.899L42.3186 8.7901C42.5115 8.45073 42.62 8.07004 42.6352 7.68001C42.6504 7.28997 42.5718 6.90199 42.406 6.54864L40.2635 1.94927L44.9211 4.78458L45.3461 5.04657L47.5235 6.35651C47.6515 6.43579 47.7561 6.54764 47.8267 6.68062C47.8973 6.8136 47.9313 6.96294 47.9252 7.11337L47.7156 12.3532C47.7156 12.3532 47.7156 12.4056 47.7156 12.4463L47.6807 13.3604C47.6711 13.5739 47.715 13.7865 47.8086 13.9787C47.9022 14.1708 48.0423 14.3366 48.2163 14.4607C48.3697 14.5626 48.5429 14.6308 48.7245 14.6609C48.9061 14.691 49.0921 14.6823 49.2701 14.6354H49.3749H49.4215L52.3325 13.5117L52.0239 16.906C52.0126 17.0326 51.9727 17.155 51.9071 17.2639C51.8416 17.3729 51.7521 17.4655 51.6455 17.5347L47.1625 20.4457L45.154 15.0604L45.0899 14.8799L44.1468 12.3532L41.2358 18.1751L41.5851 20.2245L37.9929 18.1286C37.896 18.0725 37.8112 17.9979 37.7432 17.909C37.6752 17.8201 37.6254 17.7187 37.5968 17.6105C37.5681 17.5023 37.5611 17.3895 37.5761 17.2786C37.5911 17.1677 37.6279 17.0608 37.6843 16.9642V16.9642Z" fill="url(#paint36_linear_118_121)"></path><path d="M62.0785 34.1914C62.0124 32.6266 61.5453 31.105 60.722 29.7726C60.722 29.7726 58.6145 26.7102 55.2726 25.6331C54.4683 25.4122 53.6383 25.2986 52.8041 25.2954C51.5895 25.2921 50.3862 25.5296 49.2639 25.9943C48.1417 26.459 47.1227 27.1416 46.266 28.0027L44.9735 29.2952L43.6869 28.0027C41.9503 26.2691 39.5967 25.2955 37.143 25.2955C34.6892 25.2955 32.3357 26.2691 30.599 28.0027C29.7248 28.8853 29.036 29.9339 28.5731 31.0867C28.1101 32.2395 27.8825 33.4733 27.9035 34.7154C27.3482 35.0723 26.9029 35.5761 26.6168 36.1709C26.5417 36.3577 26.5417 36.5663 26.6168 36.7531C26.2154 37.3812 26.0125 38.1156 26.0346 38.8607C25.9978 39.4765 26.0882 40.0933 26.3001 40.6727C26.512 41.2521 26.841 41.7816 27.2664 42.2284C27.6919 42.6751 28.2047 43.0295 28.7731 43.2694C29.3414 43.5094 29.9531 43.6298 30.5699 43.6231C31.2977 43.6254 32.0164 43.4621 32.6717 43.1457L34.6977 45.1659L35.8621 46.3303L36.8111 47.2385L37.632 48.0652L38.3306 48.7581L39.495 49.9225L44.2924 54.7198C44.435 54.8613 44.6181 54.9549 44.8164 54.9876C44.8762 54.9964 44.937 54.9964 44.9968 54.9876C45.1258 54.9875 45.2536 54.9616 45.3725 54.9117C45.4914 54.8617 45.5993 54.7885 45.6896 54.6965L57.5432 42.8487C58.2939 43.3047 59.1511 43.5556 60.0292 43.5765C61.1562 43.5788 62.25 43.1946 63.128 42.4878C64.0059 41.7811 64.6149 40.7946 64.8534 39.6931C65.0918 38.5915 64.9452 37.4415 64.4381 36.435C63.931 35.4284 63.094 34.6263 62.0669 34.1623L62.0785 34.1914ZM30.6049 42.0977C30.1867 42.0996 29.7727 42.0151 29.3888 41.8493C29.0049 41.6836 28.6594 41.4403 28.374 41.1347C28.0886 40.8291 27.8695 40.4678 27.7304 40.0734C27.5913 39.6791 27.5353 39.2602 27.5658 38.8432C27.5444 38.5824 27.575 38.3199 27.656 38.071C27.7369 37.8221 27.8666 37.5918 28.0374 37.3935C28.3219 37.1359 28.696 37.0001 29.0795 37.0151C29.9004 37.0151 30.8785 37.5449 31.0474 38.2377C31.1638 38.6103 31.1813 39.4021 30.1508 40.5665C30.1508 40.5665 32.3398 40.1997 32.5669 38.8199C32.5669 38.6977 32.5669 38.5754 32.5669 38.4473C32.5669 38.3192 32.5669 38.2494 32.5669 38.1737C32.4039 36.7473 30.9717 35.7284 29.5511 35.548C29.902 35.4105 30.2672 35.3129 30.6398 35.2569C31.5477 35.2615 32.4166 35.6266 33.0553 36.2719C33.6941 36.9172 34.0503 37.7897 34.0457 38.6977C34.041 39.6056 33.6759 40.4745 33.0306 41.1132C32.3854 41.7519 31.5128 42.1082 30.6049 42.1035V42.0977ZM52.0822 40.8343C52.0822 40.7179 52.0822 40.5956 52.0822 40.4675C52.0822 40.3395 52.0531 40.2638 52.0414 40.1881C51.7794 38.7792 50.2948 37.8593 48.8452 37.7894C49.1858 37.6272 49.5431 37.5023 49.9106 37.4168C50.817 37.3551 51.7107 37.6559 52.3953 38.2531C53.0799 38.8504 53.4992 39.6951 53.561 40.6015C53.6227 41.5078 53.3219 42.4016 52.7247 43.0862C52.1274 43.7708 51.2827 44.1901 50.3763 44.2518C49.9594 44.2839 49.5402 44.2295 49.1453 44.0919C48.7504 43.9542 48.3882 43.7364 48.0815 43.4521C47.7747 43.1678 47.5301 42.8232 47.363 42.4398C47.1958 42.0564 47.1098 41.6426 47.1102 41.2244C47.0695 40.9663 47.0804 40.7027 47.1424 40.4488C47.2044 40.195 47.3161 39.9559 47.4712 39.7456C47.7367 39.4679 48.1002 39.305 48.4842 39.2915C49.3109 39.2333 50.3239 39.6932 50.5394 40.3744C50.6733 40.7354 50.7606 41.5388 49.8058 42.7439C49.7942 42.7439 51.9541 42.22 52.0822 40.8343ZM56.0528 36.7589C55.6483 37.3856 55.4451 38.121 55.4706 38.8665C55.4463 39.7942 55.6779 40.7107 56.1401 41.5155L54.3935 43.2621C54.865 42.4248 55.0777 41.4665 55.0048 40.5083C54.9095 39.2045 54.3003 37.9919 53.3112 37.137C52.3221 36.2822 51.034 35.8551 49.7301 35.9497H49.6486C49.5263 35.9497 46.7376 36.5319 45.9691 38.622C45.9339 38.7159 45.9183 38.816 45.9233 38.9161C45.9283 39.0162 45.9538 39.1143 45.9982 39.2042C45.6439 39.8591 45.4977 40.6065 45.579 41.3467C45.5864 41.9635 45.7209 42.5721 45.974 43.1347C46.2271 43.6972 46.5935 44.2016 47.0502 44.6162C47.5069 45.0308 48.0442 45.3469 48.6285 45.5447C49.2128 45.7424 49.8315 45.8176 50.4462 45.7656C51.1598 45.7226 51.8553 45.5239 52.4839 45.1834L44.9561 52.7112L34.2494 41.9463C34.8819 41.2369 35.2957 40.3597 35.4407 39.4204C35.5858 38.4811 35.456 37.52 35.0671 36.6528C34.6781 35.7856 34.0466 35.0495 33.2486 34.5332C32.4507 34.0169 31.5204 33.7425 30.5699 33.7432H30.4826C30.277 33.7687 30.0729 33.8057 29.8713 33.8538C30.0267 32.1507 30.7746 30.556 31.9847 29.3475C33.3528 27.9795 35.2082 27.2109 37.143 27.2109C39.0777 27.2109 40.9332 27.9795 42.3012 29.3475L44.2865 31.327C44.4715 31.503 44.7183 31.5992 44.9735 31.5948C45.1194 31.5926 45.2636 31.563 45.3985 31.5075C45.4954 31.4625 45.584 31.4015 45.6605 31.327L47.6458 29.3475C48.3211 28.6673 49.1249 28.1281 50.0104 27.7613C50.896 27.3945 51.8456 27.2074 52.8041 27.2109C53.0486 27.2109 53.299 27.2109 53.5377 27.2458C53.5377 27.2458 58.0264 27.991 59.2665 31.1233C59.6946 31.9366 59.9652 32.8235 60.0641 33.7373H59.9244C59.8021 33.7373 57.0134 34.0983 56.0586 36.1302C56.0123 36.2283 55.9877 36.3354 55.9867 36.4439C55.9857 36.5525 56.0083 36.6599 56.0528 36.7589V36.7589ZM60.0176 42.121C59.5999 42.1221 59.1865 42.037 58.8033 41.8709C58.4201 41.7048 58.0753 41.4614 57.7905 41.1558C57.5058 40.8503 57.2872 40.4893 57.1485 40.0953C57.0097 39.7014 56.9538 39.283 56.9843 38.8665C56.9617 38.606 56.9913 38.3437 57.0713 38.0948C57.1513 37.8459 57.28 37.6154 57.4501 37.4168C57.7346 37.1592 58.1087 37.0234 58.4922 37.0384C59.3189 37.0384 60.2912 37.5682 60.4658 38.261C60.5765 38.6336 60.5939 39.4254 59.5634 40.5898C59.5634 40.5898 61.7525 40.223 61.9796 38.8432C61.9796 38.721 61.9796 38.5987 61.9796 38.4706C61.9796 38.3425 61.9796 38.2727 61.9796 38.197C61.8166 36.7706 60.3843 35.7517 58.9638 35.5713C59.3146 35.4338 59.6798 35.3361 60.0525 35.2802C60.9604 35.2848 61.8293 35.6499 62.468 36.2952C63.1068 36.9404 63.463 37.813 63.4583 38.721C63.4537 39.6289 63.0886 40.4978 62.4433 41.1365C61.7981 41.7752 60.9255 42.1314 60.0176 42.1268V42.121Z" fill="url(#paint37_linear_118_121)"></path><path d="M44.9561 40.0425C44.8899 39.2996 44.6018 38.5937 44.1294 38.0165C43.7868 37.5013 43.3413 37.0627 42.821 36.7281C42.3006 36.3935 41.7167 36.1703 41.1058 36.0724C40.495 35.9745 39.8705 36.0041 39.2717 36.1593C38.6728 36.3146 38.1126 36.5921 37.6262 36.9743C36.5855 37.7665 35.9021 38.9396 35.7263 40.2356C35.5505 41.5316 35.8968 42.8443 36.6889 43.885C37.481 44.9258 38.6541 45.6092 39.9501 45.785C41.2461 45.9607 42.5589 45.6145 43.5996 44.8224C43.6222 44.8045 43.6436 44.785 43.6636 44.7642C43.7509 44.6768 45.7828 42.6974 45.2879 40.5141C45.2433 40.3195 45.1242 40.1502 44.9561 40.0425V40.0425ZM43.4424 40.3686C43.3768 40.743 43.168 41.0771 42.8602 41.3001C42.2023 41.8008 41.1136 41.9696 40.5314 41.5213C40.217 41.2826 39.7163 40.6771 39.8444 39.1285C39.8444 39.1285 38.3249 40.747 38.9769 41.9812C39.0351 42.0802 39.1108 42.1792 39.1865 42.284L39.3728 42.4936C40.3625 43.5241 42.115 43.4717 43.3667 42.7556C43.1659 43.0781 42.9317 43.3786 42.6681 43.6522C41.9423 44.198 41.0295 44.4332 40.1304 44.306C39.2312 44.1788 38.4195 43.6996 37.8736 42.9739C37.3278 42.2482 37.0926 41.3353 37.2198 40.4362C37.347 39.5371 37.8262 38.7253 38.5519 38.1795C38.8828 37.924 39.2631 37.74 39.6688 37.639C40.0744 37.5381 40.4967 37.5224 40.9087 37.593C41.3207 37.6636 41.7136 37.8189 42.0626 38.0491C42.4115 38.2793 42.7089 38.5795 42.9359 38.9305C43.1125 39.1242 43.2487 39.3511 43.3367 39.598C43.4247 39.8449 43.4626 40.1068 43.4482 40.3686H43.4424Z" fill="url(#paint38_linear_118_121)"></path><defs><linearGradient id="paint0_linear_118_121" x1="-8.24526" y1="26.6985" x2="75.2013" y2="141.194" gradientUnits="userSpaceOnUse"><stop stop-color="#FCEE21"></stop><stop offset="1" stop-color="#FF931E"></stop></linearGradient><linearGradient id="paint1_linear_118_121" x1="11.0436" y1="12.6385" x2="94.4962" y2="127.139" gradientUnits="userSpaceOnUse"><stop stop-color="#FCEE21"></stop><stop offset="1" stop-color="#FF931E"></stop></linearGradient><linearGradient id="paint2_linear_118_121" x1="-32.8953" y1="44.6652" x2="50.5514" y2="159.16" gradientUnits="userSpaceOnUse"><stop stop-color="#FCEE21"></stop><stop offset="1" stop-color="#FF931E"></stop></linearGradient><linearGradient id="paint3_linear_118_121" x1="-34.3977" y1="45.7597" x2="49.0488" y2="160.255" gradientUnits="userSpaceOnUse"><stop stop-color="#FCEE21"></stop><stop offset="1" stop-color="#FF931E"></stop></linearGradient><linearGradient id="paint4_linear_118_121" x1="-1.33457" y1="21.6625" x2="82.1121" y2="136.163" gradientUnits="userSpaceOnUse"><stop stop-color="#FCEE21"></stop><stop offset="1" stop-color="#FF931E"></stop></linearGradient><linearGradient id="paint5_linear_118_121" x1="-1.20069" y1="21.5637" x2="82.2457" y2="136.059" gradientUnits="userSpaceOnUse"><stop stop-color="#FCEE21"></stop><stop offset="1" stop-color="#FF931E"></stop></linearGradient><linearGradient id="paint6_linear_118_121" x1="-2.38253" y1="22.4254" x2="81.0696" y2="136.92" gradientUnits="userSpaceOnUse"><stop stop-color="#FCEE21"></stop><stop offset="1" stop-color="#FF931E"></stop></linearGradient><linearGradient id="paint7_linear_118_121" x1="-8.71696" y1="27.0363" x2="74.7352" y2="141.537" gradientUnits="userSpaceOnUse"><stop stop-color="#FCEE21"></stop><stop offset="1" stop-color="#FF931E"></stop></linearGradient><linearGradient id="paint8_linear_118_121" x1="12.8826" y1="11.2995" x2="96.329" y2="125.801" gradientUnits="userSpaceOnUse"><stop stop-color="#FCEE21"></stop><stop offset="1" stop-color="#FF931E"></stop></linearGradient><linearGradient id="paint9_linear_118_121" x1="13.0166" y1="11.2004" x2="96.469" y2="125.696" gradientUnits="userSpaceOnUse"><stop stop-color="#FCEE21"></stop><stop offset="1" stop-color="#FF931E"></stop></linearGradient><linearGradient id="paint10_linear_118_121" x1="-19.0508" y1="34.5699" x2="64.3957" y2="149.071" gradientUnits="userSpaceOnUse"><stop stop-color="#FCEE21"></stop><stop offset="1" stop-color="#FF931E"></stop></linearGradient><linearGradient id="paint11_linear_118_121" x1="-20.9721" y1="35.9729" x2="62.4803" y2="150.468" gradientUnits="userSpaceOnUse"><stop stop-color="#FCEE21"></stop><stop offset="1" stop-color="#FF931E"></stop></linearGradient><linearGradient id="paint12_linear_118_121" x1="22.6985" y1="4.14415" x2="106.145" y2="118.645" gradientUnits="userSpaceOnUse"><stop stop-color="#FCEE21"></stop><stop offset="1" stop-color="#FF931E"></stop></linearGradient><linearGradient id="paint13_linear_118_121" x1="18.9492" y1="6.88051" x2="102.396" y2="121.376" gradientUnits="userSpaceOnUse"><stop stop-color="#FCEE21"></stop><stop offset="1" stop-color="#FF931E"></stop></linearGradient><linearGradient id="paint14_linear_118_121" x1="14.5711" y1="10.0651" x2="98.0235" y2="124.566" gradientUnits="userSpaceOnUse"><stop stop-color="#FCEE21"></stop><stop offset="1" stop-color="#FF931E"></stop></linearGradient><linearGradient id="paint15_linear_118_121" x1="94.571" y1="-14.754" x2="11.1187" y2="99.747" gradientUnits="userSpaceOnUse"><stop stop-color="#FCEE21"></stop><stop offset="1" stop-color="#FF931E"></stop></linearGradient><linearGradient id="paint16_linear_118_121" x1="10.1697" y1="13.273" x2="93.6163" y2="127.774" gradientUnits="userSpaceOnUse"><stop stop-color="#FCEE21"></stop><stop offset="1" stop-color="#FF931E"></stop></linearGradient><linearGradient id="paint17_linear_118_121" x1="105.185" y1="-20.8555" x2="21.7322" y2="93.6456" gradientUnits="userSpaceOnUse"><stop stop-color="#FCEE21"></stop><stop offset="1" stop-color="#FF931E"></stop></linearGradient><linearGradient id="paint18_linear_118_121" x1="7.02003" y1="15.5669" x2="90.4723" y2="130.068" gradientUnits="userSpaceOnUse"><stop stop-color="#FCEE21"></stop><stop offset="1" stop-color="#FF931E"></stop></linearGradient><linearGradient id="paint19_linear_118_121" x1="4.22547" y1="17.6046" x2="87.6778" y2="132.106" gradientUnits="userSpaceOnUse"><stop stop-color="#FCEE21"></stop><stop offset="1" stop-color="#FF931E"></stop></linearGradient><linearGradient id="paint20_linear_118_121" x1="1.71613" y1="19.4385" x2="85.1627" y2="133.934" gradientUnits="userSpaceOnUse"><stop stop-color="#FCEE21"></stop><stop offset="1" stop-color="#FF931E"></stop></linearGradient><linearGradient id="paint21_linear_118_121" x1="-0.571896" y1="21.1036" x2="82.8745" y2="135.605" gradientUnits="userSpaceOnUse"><stop stop-color="#FCEE21"></stop><stop offset="1" stop-color="#FF931E"></stop></linearGradient><linearGradient id="paint22_linear_118_121" x1="-2.70269" y1="22.6581" x2="80.7497" y2="137.153" gradientUnits="userSpaceOnUse"><stop stop-color="#FCEE21"></stop><stop offset="1" stop-color="#FF931E"></stop></linearGradient><linearGradient id="paint23_linear_118_121" x1="-4.76375" y1="24.1543" x2="78.6886" y2="138.655" gradientUnits="userSpaceOnUse"><stop stop-color="#FCEE21"></stop><stop offset="1" stop-color="#FF931E"></stop></linearGradient><linearGradient id="paint24_linear_118_121" x1="-6.90038" y1="25.7205" x2="76.5462" y2="140.216" gradientUnits="userSpaceOnUse"><stop stop-color="#FCEE21"></stop><stop offset="1" stop-color="#FF931E"></stop></linearGradient><linearGradient id="paint25_linear_118_121" x1="-9.43878" y1="27.566" x2="74.0078" y2="142.067" gradientUnits="userSpaceOnUse"><stop stop-color="#FCEE21"></stop><stop offset="1" stop-color="#FF931E"></stop></linearGradient><linearGradient id="paint26_linear_118_121" x1="22.8034" y1="4.06845" x2="106.25" y2="118.57" gradientUnits="userSpaceOnUse"><stop stop-color="#FCEE21"></stop><stop offset="1" stop-color="#FF931E"></stop></linearGradient><linearGradient id="paint27_linear_118_121" x1="27.199" y1="0.866383" x2="110.646" y2="115.367" gradientUnits="userSpaceOnUse"><stop stop-color="#FCEE21"></stop><stop offset="1" stop-color="#FF931E"></stop></linearGradient><linearGradient id="paint28_linear_118_121" x1="30.8319" y1="-1.78259" x2="114.278" y2="112.719" gradientUnits="userSpaceOnUse"><stop stop-color="#FCEE21"></stop><stop offset="1" stop-color="#FF931E"></stop></linearGradient><linearGradient id="paint29_linear_118_121" x1="33.9758" y1="-4.0765" x2="117.428" y2="110.425" gradientUnits="userSpaceOnUse"><stop stop-color="#FCEE21"></stop><stop offset="1" stop-color="#FF931E"></stop></linearGradient><linearGradient id="paint30_linear_118_121" x1="36.7703" y1="-6.11412" x2="120.223" y2="108.387" gradientUnits="userSpaceOnUse"><stop stop-color="#FCEE21"></stop><stop offset="1" stop-color="#FF931E"></stop></linearGradient><linearGradient id="paint31_linear_118_121" x1="39.2855" y1="-7.94243" x2="122.732" y2="106.553" gradientUnits="userSpaceOnUse"><stop stop-color="#FCEE21"></stop><stop offset="1" stop-color="#FF931E"></stop></linearGradient><linearGradient id="paint32_linear_118_121" x1="41.5734" y1="-9.61319" x2="125.02" y2="104.888" gradientUnits="userSpaceOnUse"><stop stop-color="#FCEE21"></stop><stop offset="1" stop-color="#FF931E"></stop></linearGradient><linearGradient id="paint33_linear_118_121" x1="43.6985" y1="-11.1618" x2="127.151" y2="103.339" gradientUnits="userSpaceOnUse"><stop stop-color="#FCEE21"></stop><stop offset="1" stop-color="#FF931E"></stop></linearGradient><linearGradient id="paint34_linear_118_121" x1="39.5067" y1="-8.1053" x2="122.953" y2="106.396" gradientUnits="userSpaceOnUse"><stop stop-color="#FCEE21"></stop><stop offset="1" stop-color="#FF931E"></stop></linearGradient><linearGradient id="paint35_linear_118_121" x1="42.1907" y1="-10.0614" x2="125.637" y2="104.439" gradientUnits="userSpaceOnUse"><stop stop-color="#FCEE21"></stop><stop offset="1" stop-color="#FF931E"></stop></linearGradient><linearGradient id="paint36_linear_118_121" x1="31.9439" y1="-2.59188" x2="115.39" y2="111.903" gradientUnits="userSpaceOnUse"><stop stop-color="#FCEE21"></stop><stop offset="1" stop-color="#FF931E"></stop></linearGradient><linearGradient id="paint37_linear_118_121" x1="21.4352" y1="5.06404" x2="104.888" y2="119.565" gradientUnits="userSpaceOnUse"><stop stop-color="#FCEE21"></stop><stop offset="1" stop-color="#FF931E"></stop></linearGradient><linearGradient id="paint38_linear_118_121" x1="16.7544" y1="8.47572" x2="100.201" y2="122.977" gradientUnits="userSpaceOnUse"><stop stop-color="#FCEE21"></stop><stop offset="1" stop-color="#FF931E"></stop></linearGradient></defs></svg>